<svg class="rich-terminal" viewBox="0 0 1482 1026.0" xmlns="http://www.w3.org/2000/svg">
    <!-- Generated with Rich https://www.textualize.io -->
    <style>

    @font-face {
        font-family: "Fira Code";
        src: local("FiraCode-Regular"),
                url("https://cdnjs.cloudflare.com/ajax/libs/firacode/6.2.0/woff2/FiraCode-Regular.woff2") format("woff2"),
                url("https://cdnjs.cloudflare.com/ajax/libs/firacode/6.2.0/woff/FiraCode-Regular.woff") format("woff");
        font-style: normal;
        font-weight: 400;
    }
    @font-face {
        font-family: "Fira Code";
        src: local("FiraCode-Bold"),
                url("https://cdnjs.cloudflare.com/ajax/libs/firacode/6.2.0/woff2/FiraCode-Bold.woff2") format("woff2"),
                url("https://cdnjs.cloudflare.com/ajax/libs/firacode/6.2.0/woff/FiraCode-Bold.woff") format("woff");
        font-style: bold;
        font-weight: 700;
    }

    .terminal-157788573-matrix {
        font-family: Fira Code, monospace;
        font-size: 20px;
        line-height: 24.4px;
        font-variant-east-asian: full-width;
    }

    .terminal-157788573-title {
        font-size: 18px;
        font-weight: bold;
        font-family: arial;
    }

    .terminal-157788573-r1 { fill: #c5c8c6 }
.terminal-157788573-r2 { fill: #242f38;font-weight: bold }
.terminal-157788573-r3 { fill: #e0e0e0 }
.terminal-157788573-r4 { fill: #4f4f4f }
.terminal-157788573-r5 { fill: #f0ead0 }
.terminal-157788573-r6 { fill: #f0ead0;font-weight: bold }
.terminal-157788573-r7 { fill: #e0e0e0;font-weight: bold }
.terminal-157788573-r8 { fill: #4090a1 }
.terminal-157788573-r9 { fill: #7ab8d4 }
.terminal-157788573-r10 { fill: #c47a7a;font-weight: bold }
.terminal-157788573-r11 { fill: #8a8a8a }
.terminal-157788573-r12 { fill: #ffa62b;font-weight: bold }
    </style>

    <defs>
    <clipPath id="terminal-157788573-clip-terminal">
      <rect x="0" y="0" width="1463.0" height="975.0" />
    </clipPath>
    <clipPath id="terminal-157788573-line-0">
    <rect x="0" y="1.5" width="1464" height="24.65"/>
            </clipPath>
<clipPath id="terminal-157788573-line-1">
    <rect x="0" y="25.9" width="1464" height="24.65"/>
            </clipPath>
<clipPath id="terminal-157788573-line-2">
    <rect x="0" y="50.3" width="1464" height="24.65"/>
            </clipPath>
<clipPath id="terminal-157788573-line-3">
    <rect x="0" y="74.7" width="1464" height="24.65"/>
            </clipPath>
<clipPath id="terminal-157788573-line-4">
    <rect x="0" y="99.1" width="1464" height="24.65"/>
            </clipPath>
<clipPath id="terminal-157788573-line-5">
    <rect x="0" y="123.5" width="1464" height="24.65"/>
            </clipPath>
<clipPath id="terminal-157788573-line-6">
    <rect x="0" y="147.9" width="1464" height="24.65"/>
            </clipPath>
<clipPath id="terminal-157788573-line-7">
    <rect x="0" y="172.3" width="1464" height="24.65"/>
            </clipPath>
<clipPath id="terminal-157788573-line-8">
    <rect x="0" y="196.7" width="1464" height="24.65"/>
            </clipPath>
<clipPath id="terminal-157788573-line-9">
    <rect x="0" y="221.1" width="1464" height="24.65"/>
            </clipPath>
<clipPath id="terminal-157788573-line-10">
    <rect x="0" y="245.5" width="1464" height="24.65"/>
            </clipPath>
<clipPath id="terminal-157788573-line-11">
    <rect x="0" y="269.9" width="1464" height="24.65"/>
            </clipPath>
<clipPath id="terminal-157788573-line-12">
    <rect x="0" y="294.3" width="1464" height="24.65"/>
            </clipPath>
<clipPath id="terminal-157788573-line-13">
    <rect x="0" y="318.7" width="1464" height="24.65"/>
            </clipPath>
<clipPath id="terminal-157788573-line-14">
    <rect x="0" y="343.1" width="1464" height="24.65"/>
            </clipPath>
<clipPath id="terminal-157788573-line-15">
    <rect x="0" y="367.5" width="1464" height="24.65"/>
            </clipPath>
<clipPath id="terminal-157788573-line-16">
    <rect x="0" y="391.9" width="1464" height="24.65"/>
            </clipPath>
<clipPath id="terminal-157788573-line-17">
    <rect x="0" y="416.3" width="1464" height="24.65"/>
            </clipPath>
<clipPath id="terminal-157788573-line-18">
    <rect x="0" y="440.7" width="1464" height="24.65"/>
            </clipPath>
<clipPath id="terminal-157788573-line-19">
    <rect x="0" y="465.1" width="1464" height="24.65"/>
            </clipPath>
<clipPath id="terminal-157788573-line-20">
    <rect x="0" y="489.5" width="1464" height="24.65"/>
            </clipPath>
<clipPath id="terminal-157788573-line-21">
    <rect x="0" y="513.9" width="1464" height="24.65"/>
            </clipPath>
<clipPath id="terminal-157788573-line-22">
    <rect x="0" y="538.3" width="1464" height="24.65"/>
            </clipPath>
<clipPath id="terminal-157788573-line-23">
    <rect x="0" y="562.7" width="1464" height="24.65"/>
            </clipPath>
<clipPath id="terminal-157788573-line-24">
    <rect x="0" y="587.1" width="1464" height="24.65"/>
            </clipPath>
<clipPath id="terminal-157788573-line-25">
    <rect x="0" y="611.5" width="1464" height="24.65"/>
            </clipPath>
<clipPath id="terminal-157788573-line-26">
    <rect x="0" y="635.9" width="1464" height="24.65"/>
            </clipPath>
<clipPath id="terminal-157788573-line-27">
    <rect x="0" y="660.3" width="1464" height="24.65"/>
            </clipPath>
<clipPath id="terminal-157788573-line-28">
    <rect x="0" y="684.7" width="1464" height="24.65"/>
            </clipPath>
<clipPath id="terminal-157788573-line-29">
    <rect x="0" y="709.1" width="1464" height="24.65"/>
            </clipPath>
<clipPath id="terminal-157788573-line-30">
    <rect x="0" y="733.5" width="1464" height="24.65"/>
            </clipPath>
<clipPath id="terminal-157788573-line-31">
    <rect x="0" y="757.9" width="1464" height="24.65"/>
            </clipPath>
<clipPath id="terminal-157788573-line-32">
    <rect x="0" y="782.3" width="1464" height="24.65"/>
            </clipPath>
<clipPath id="terminal-157788573-line-33">
    <rect x="0" y="806.7" width="1464" height="24.65"/>
            </clipPath>
<clipPath id="terminal-157788573-line-34">
    <rect x="0" y="831.1" width="1464" height="24.65"/>
            </clipPath>
<clipPath id="terminal-157788573-line-35">
    <rect x="0" y="855.5" width="1464" height="24.65"/>
            </clipPath>
<clipPath id="terminal-157788573-line-36">
    <rect x="0" y="879.9" width="1464" height="24.65"/>
            </clipPath>
<clipPath id="terminal-157788573-line-37">
    <rect x="0" y="904.3" width="1464" height="24.65"/>
            </clipPath>
<clipPath id="terminal-157788573-line-38">
    <rect x="0" y="928.7" width="1464" height="24.65"/>
            </clipPath>
    </defs>

    <rect fill="#292929" stroke="rgba(255,255,255,0.35)" stroke-width="1" x="1" y="1" width="1480" height="1024" rx="8"/><text class="terminal-157788573-title" fill="#c5c8c6" text-anchor="middle" x="740" y="27">pfq</text>
            <g transform="translate(26,22)">
            <circle cx="0" cy="0" r="7" fill="#ff5f57"/>
            <circle cx="22" cy="0" r="7" fill="#febc2e"/>
            <circle cx="44" cy="0" r="7" fill="#28c840"/>
            </g>
        
    <g transform="translate(9, 41)" clip-path="url(#terminal-157788573-clip-terminal)">
    <rect fill="#242f38" x="0" y="1.5" width="12.2" height="24.65" shape-rendering="crispEdges"/><rect fill="#e0e0e0" x="12.2" y="1.5" width="85.4" height="24.65" shape-rendering="crispEdges"/><rect fill="#242f38" x="97.6" y="1.5" width="244" height="24.65" shape-rendering="crispEdges"/><rect fill="#242f38" x="341.6" y="1.5" width="1110.2" height="24.65" shape-rendering="crispEdges"/><rect fill="#242f38" x="1451.8" y="1.5" width="12.2" height="24.65" shape-rendering="crispEdges"/><rect fill="#121212" x="0" y="25.9" width="1464" height="24.65" shape-rendering="crispEdges"/><rect fill="#121212" x="0" y="50.3" width="12.2" height="24.65" shape-rendering="crispEdges"/><rect fill="#121212" x="12.2" y="50.3" width="170.8" height="24.65" shape-rendering="crispEdges"/><rect fill="#121212" x="183" y="50.3" width="658.8" height="24.65" shape-rendering="crispEdges"/><rect fill="#121212" x="841.8" y="50.3" width="292.8" height="24.65" shape-rendering="crispEdges"/><rect fill="#121212" x="1134.6" y="50.3" width="317.2" height="24.65" shape-rendering="crispEdges"/><rect fill="#121212" x="1451.8" y="50.3" width="12.2" height="24.65" shape-rendering="crispEdges"/><rect fill="#121212" x="0" y="74.7" width="12.2" height="24.65" shape-rendering="crispEdges"/><rect fill="#2e2600" x="12.2" y="74.7" width="12.2" height="24.65" shape-rendering="crispEdges"/><rect fill="#2e2600" x="24.4" y="74.7" width="97.6" height="24.65" shape-rendering="crispEdges"/><rect fill="#2e2600" x="122" y="74.7" width="61" height="24.65" shape-rendering="crispEdges"/><rect fill="#121212" x="183" y="74.7" width="36.6" height="24.65" shape-rendering="crispEdges"/><rect fill="#121212" x="219.6" y="74.7" width="170.8" height="24.65" shape-rendering="crispEdges"/><rect fill="#121212" x="390.4" y="74.7" width="451.4" height="24.65" shape-rendering="crispEdges"/><rect fill="#121212" x="841.8" y="74.7" width="12.2" height="24.65" shape-rendering="crispEdges"/><rect fill="#121212" x="854" y="74.7" width="85.4" height="24.65" shape-rendering="crispEdges"/><rect fill="#121212" x="939.4" y="74.7" width="195.2" height="24.65" shape-rendering="crispEdges"/><rect fill="#121212" x="1134.6" y="74.7" width="317.2" height="24.65" shape-rendering="crispEdges"/><rect fill="#121212" x="1451.8" y="74.7" width="12.2" height="24.65" shape-rendering="crispEdges"/><rect fill="#121212" x="0" y="99.1" width="12.2" height="24.65" shape-rendering="crispEdges"/><rect fill="#121212" x="12.2" y="99.1" width="12.2" height="24.65" shape-rendering="crispEdges"/><rect fill="#121212" x="24.4" y="99.1" width="97.6" height="24.65" shape-rendering="crispEdges"/><rect fill="#121212" x="122" y="99.1" width="61" height="24.65" shape-rendering="crispEdges"/><rect fill="#121212" x="183" y="99.1" width="658.8" height="24.65" shape-rendering="crispEdges"/><rect fill="#121212" x="841.8" y="99.1" width="12.2" height="24.65" shape-rendering="crispEdges"/><rect fill="#121212" x="854" y="99.1" width="61" height="24.65" shape-rendering="crispEdges"/><rect fill="#121212" x="915" y="99.1" width="219.6" height="24.65" shape-rendering="crispEdges"/><rect fill="#121212" x="1134.6" y="99.1" width="317.2" height="24.65" shape-rendering="crispEdges"/><rect fill="#121212" x="1451.8" y="99.1" width="12.2" height="24.65" shape-rendering="crispEdges"/><rect fill="#121212" x="0" y="123.5" width="12.2" height="24.65" shape-rendering="crispEdges"/><rect fill="#121212" x="12.2" y="123.5" width="170.8" height="24.65" shape-rendering="crispEdges"/><rect fill="#121212" x="183" y="123.5" width="658.8" height="24.65" shape-rendering="crispEdges"/><rect fill="#121212" x="841.8" y="123.5" width="292.8" height="24.65" shape-rendering="crispEdges"/><rect fill="#121212" x="1134.6" y="123.5" width="317.2" height="24.65" shape-rendering="crispEdges"/><rect fill="#121212" x="1451.8" y="123.5" width="12.2" height="24.65" shape-rendering="crispEdges"/><rect fill="#121212" x="0" y="147.9" width="12.2" height="24.65" shape-rendering="crispEdges"/><rect fill="#121212" x="12.2" y="147.9" width="12.2" height="24.65" shape-rendering="crispEdges"/><rect fill="#121212" x="24.4" y="147.9" width="109.8" height="24.65" shape-rendering="crispEdges"/><rect fill="#121212" x="134.2" y="147.9" width="48.8" height="24.65" shape-rendering="crispEdges"/><rect fill="#121212" x="183" y="147.9" width="36.6" height="24.65" shape-rendering="crispEdges"/><rect fill="#121212" x="219.6" y="147.9" width="122" height="24.65" shape-rendering="crispEdges"/><rect fill="#121212" x="341.6" y="147.9" width="500.2" height="24.65" shape-rendering="crispEdges"/><rect fill="#121212" x="841.8" y="147.9" width="12.2" height="24.65" shape-rendering="crispEdges"/><rect fill="#121212" x="854" y="147.9" width="73.2" height="24.65" shape-rendering="crispEdges"/><rect fill="#121212" x="927.2" y="147.9" width="207.4" height="24.65" shape-rendering="crispEdges"/><rect fill="#121212" x="1134.6" y="147.9" width="317.2" height="24.65" shape-rendering="crispEdges"/><rect fill="#121212" x="1451.8" y="147.9" width="12.2" height="24.65" shape-rendering="crispEdges"/><rect fill="#121212" x="0" y="172.3" width="12.2" height="24.65" shape-rendering="crispEdges"/><rect fill="#121212" x="12.2" y="172.3" width="170.8" height="24.65" shape-rendering="crispEdges"/><rect fill="#121212" x="183" y="172.3" width="658.8" height="24.65" shape-rendering="crispEdges"/><rect fill="#121212" x="841.8" y="172.3" width="292.8" height="24.65" shape-rendering="crispEdges"/><rect fill="#121212" x="1134.6" y="172.3" width="317.2" height="24.65" shape-rendering="crispEdges"/><rect fill="#121212" x="1451.8" y="172.3" width="12.2" height="24.65" shape-rendering="crispEdges"/><rect fill="#121212" x="0" y="196.7" width="12.2" height="24.65" shape-rendering="crispEdges"/><rect fill="#121212" x="12.2" y="196.7" width="12.2" height="24.65" shape-rendering="crispEdges"/><rect fill="#121212" x="24.4" y="196.7" width="134.2" height="24.65" shape-rendering="crispEdges"/><rect fill="#121212" x="158.6" y="196.7" width="24.4" height="24.65" shape-rendering="crispEdges"/><rect fill="#121212" x="183" y="196.7" width="658.8" height="24.65" shape-rendering="crispEdges"/><rect fill="#121212" x="841.8" y="196.7" width="12.2" height="24.65" shape-rendering="crispEdges"/><rect fill="#121212" x="854" y="196.7" width="61" height="24.65" shape-rendering="crispEdges"/><rect fill="#121212" x="915" y="196.7" width="219.6" height="24.65" shape-rendering="crispEdges"/><rect fill="#121212" x="1134.6" y="196.7" width="317.2" height="24.65" shape-rendering="crispEdges"/><rect fill="#121212" x="1451.8" y="196.7" width="12.2" height="24.65" shape-rendering="crispEdges"/><rect fill="#121212" x="0" y="221.1" width="12.2" height="24.65" shape-rendering="crispEdges"/><rect fill="#121212" x="12.2" y="221.1" width="170.8" height="24.65" shape-rendering="crispEdges"/><rect fill="#121212" x="183" y="221.1" width="36.6" height="24.65" shape-rendering="crispEdges"/><rect fill="#121212" x="219.6" y="221.1" width="207.4" height="24.65" shape-rendering="crispEdges"/><rect fill="#121212" x="427" y="221.1" width="414.8" height="24.65" shape-rendering="crispEdges"/><rect fill="#121212" x="841.8" y="221.1" width="292.8" height="24.65" shape-rendering="crispEdges"/><rect fill="#121212" x="1134.6" y="221.1" width="317.2" height="24.65" shape-rendering="crispEdges"/><rect fill="#121212" x="1451.8" y="221.1" width="12.2" height="24.65" shape-rendering="crispEdges"/><rect fill="#121212" x="0" y="245.5" width="1464" height="24.65" shape-rendering="crispEdges"/><rect fill="#121212" x="0" y="269.9" width="1464" height="24.65" shape-rendering="crispEdges"/><rect fill="#121212" x="0" y="294.3" width="1464" height="24.65" shape-rendering="crispEdges"/><rect fill="#121212" x="0" y="318.7" width="1464" height="24.65" shape-rendering="crispEdges"/><rect fill="#121212" x="0" y="343.1" width="1464" height="24.65" shape-rendering="crispEdges"/><rect fill="#121212" x="0" y="367.5" width="1464" height="24.65" shape-rendering="crispEdges"/><rect fill="#121212" x="0" y="391.9" width="1464" height="24.65" shape-rendering="crispEdges"/><rect fill="#121212" x="0" y="416.3" width="1464" height="24.65" shape-rendering="crispEdges"/><rect fill="#121212" x="0" y="440.7" width="1464" height="24.65" shape-rendering="crispEdges"/><rect fill="#121212" x="0" y="465.1" width="1464" height="24.65" shape-rendering="crispEdges"/><rect fill="#121212" x="0" y="489.5" width="1464" height="24.65" shape-rendering="crispEdges"/><rect fill="#121212" x="0" y="513.9" width="1464" height="24.65" shape-rendering="crispEdges"/><rect fill="#121212" x="0" y="538.3" width="1464" height="24.65" shape-rendering="crispEdges"/><rect fill="#121212" x="0" y="562.7" width="1464" height="24.65" shape-rendering="crispEdges"/><rect fill="#121212" x="0" y="587.1" width="1464" height="24.65" shape-rendering="crispEdges"/><rect fill="#121212" x="0" y="611.5" width="1464" height="24.65" shape-rendering="crispEdges"/><rect fill="#121212" x="0" y="635.9" width="1464" height="24.65" shape-rendering="crispEdges"/><rect fill="#121212" x="0" y="660.3" width="1464" height="24.65" shape-rendering="crispEdges"/><rect fill="#121212" x="0" y="684.7" width="1464" height="24.65" shape-rendering="crispEdges"/><rect fill="#121212" x="0" y="709.1" width="1464" height="24.65" shape-rendering="crispEdges"/><rect fill="#121212" x="0" y="733.5" width="1464" height="24.65" shape-rendering="crispEdges"/><rect fill="#121212" x="0" y="757.9" width="1464" height="24.65" shape-rendering="crispEdges"/><rect fill="#121212" x="0" y="782.3" width="1464" height="24.65" shape-rendering="crispEdges"/><rect fill="#121212" x="0" y="806.7" width="1464" height="24.65" shape-rendering="crispEdges"/><rect fill="#121212" x="0" y="831.1" width="1464" height="24.65" shape-rendering="crispEdges"/><rect fill="#121212" x="0" y="855.5" width="1464" height="24.65" shape-rendering="crispEdges"/><rect fill="#121212" x="0" y="879.9" width="1464" height="24.65" shape-rendering="crispEdges"/><rect fill="#121212" x="0" y="904.3" width="1464" height="24.65" shape-rendering="crispEdges"/><rect fill="#121212" x="0" y="928.7" width="1464" height="24.65" shape-rendering="crispEdges"/><rect fill="#242f38" x="0" y="953.1" width="36.6" height="24.65" shape-rendering="crispEdges"/><rect fill="#242f38" x="36.6" y="953.1" width="61" height="24.65" shape-rendering="crispEdges"/><rect fill="#242f38" x="97.6" y="953.1" width="36.6" height="24.65" shape-rendering="crispEdges"/><rect fill="#242f38" x="134.2" y="953.1" width="61" height="24.65" shape-rendering="crispEdges"/><rect fill="#242f38" x="195.2" y="953.1" width="61" height="24.65" shape-rendering="crispEdges"/><rect fill="#242f38" x="256.2" y="953.1" width="61" height="24.65" shape-rendering="crispEdges"/><rect fill="#242f38" x="317.2" y="953.1" width="36.6" height="24.65" shape-rendering="crispEdges"/><rect fill="#242f38" x="353.8" y="953.1" width="61" height="24.65" shape-rendering="crispEdges"/><rect fill="#242f38" x="414.8" y="953.1" width="36.6" height="24.65" shape-rendering="crispEdges"/><rect fill="#242f38" x="451.4" y="953.1" width="85.4" height="24.65" shape-rendering="crispEdges"/><rect fill="#242f38" x="536.8" y="953.1" width="36.6" height="24.65" shape-rendering="crispEdges"/><rect fill="#242f38" x="573.4" y="953.1" width="146.4" height="24.65" shape-rendering="crispEdges"/><rect fill="#242f38" x="719.8" y="953.1" width="36.6" height="24.65" shape-rendering="crispEdges"/><rect fill="#242f38" x="756.4" y="953.1" width="85.4" height="24.65" shape-rendering="crispEdges"/><rect fill="#242f38" x="841.8" y="953.1" width="36.6" height="24.65" shape-rendering="crispEdges"/><rect fill="#242f38" x="878.4" y="953.1" width="122" height="24.65" shape-rendering="crispEdges"/><rect fill="#242f38" x="1000.4" y="953.1" width="36.6" height="24.65" shape-rendering="crispEdges"/><rect fill="#242f38" x="1037" y="953.1" width="85.4" height="24.65" shape-rendering="crispEdges"/><rect fill="#242f38" x="1122.4" y="953.1" width="48.8" height="24.65" shape-rendering="crispEdges"/><rect fill="#242f38" x="1171.2" y="953.1" width="36.6" height="24.65" shape-rendering="crispEdges"/><rect fill="#242f38" x="1207.8" y="953.1" width="256.2" height="24.65" shape-rendering="crispEdges"/>
    <g class="terminal-157788573-matrix">
    <text class="terminal-157788573-r2" x="12.2" y="20" textLength="85.4" clip-path="url(#terminal-157788573-line-0)">&#160;p&#160;f&#160;q&#160;</text><text class="terminal-157788573-r3" x="97.6" y="20" textLength="244" clip-path="url(#terminal-157788573-line-0)">&#160;&#160;vault:&#160;test_vault/</text><text class="terminal-157788573-r1" x="1464" y="20" textLength="12.2" clip-path="url(#terminal-157788573-line-0)">
</text><text class="terminal-157788573-r1" x="1464" y="44.4" textLength="12.2" clip-path="url(#terminal-157788573-line-1)">
</text><text class="terminal-157788573-r4" x="12.2" y="68.8" textLength="170.8" clip-path="url(#terminal-157788573-line-2)">&#160;status&#160;&#160;&#160;&#160;&#160;&#160;&#160;</text><text class="terminal-157788573-r4" x="183" y="68.8" textLength="658.8" clip-path="url(#terminal-157788573-line-2)">&#160;description&#160;&#160;&#160;&#160;&#160;&#160;&#160;&#160;&#160;&#160;&#160;&#160;&#160;&#160;&#160;&#160;&#160;&#160;&#160;&#160;&#160;&#160;&#160;&#160;&#160;&#160;&#160;&#160;&#160;&#160;&#160;&#160;&#160;&#160;&#160;&#160;&#160;&#160;&#160;&#160;&#160;&#160;</text><text class="terminal-157788573-r4" x="841.8" y="68.8" textLength="292.8" clip-path="url(#terminal-157788573-line-2)">&#160;when&#160;&#160;&#160;&#160;&#160;&#160;&#160;&#160;&#160;&#160;&#160;&#160;&#160;&#160;&#160;&#160;&#160;&#160;&#160;</text><text class="terminal-157788573-r1" x="1464" y="68.8" textLength="12.2" clip-path="url(#terminal-157788573-line-2)">
</text><text class="terminal-157788573-r6" x="24.4" y="93.2" textLength="97.6" clip-path="url(#terminal-157788573-line-3)">▸&#160;active</text><text class="terminal-157788573-r7" x="219.6" y="93.2" textLength="170.8" clip-path="url(#terminal-157788573-line-3)">@&#160;Learn&#160;guitar</text><text class="terminal-157788573-r8" x="854" y="93.2" textLength="85.4" clip-path="url(#terminal-157788573-line-3)">↻&#160;fri&#160;1</text><text class="terminal-157788573-r1" x="1464" y="93.2" textLength="12.2" clip-path="url(#terminal-157788573-line-3)">
</text><text class="terminal-157788573-r9" x="24.4" y="117.6" textLength="97.6" clip-path="url(#terminal-157788573-line-4)">▸&#160;active</text><text class="terminal-157788573-r3" x="183" y="117.6" textLength="658.8" clip-path="url(#terminal-157788573-line-4)">&#160;&#160;&#160;├──&#160;Practice&#160;chords&#160;&#160;&#160;&#160;&#160;&#160;&#160;&#160;&#160;&#160;&#160;&#160;&#160;&#160;&#160;&#160;&#160;&#160;&#160;&#160;&#160;&#160;&#160;&#160;&#160;&#160;&#160;&#160;&#160;&#160;&#160;&#160;</text><text class="terminal-157788573-r8" x="854" y="117.6" textLength="61" clip-path="url(#terminal-157788573-line-4)">↻&#160;sun</text><text class="terminal-157788573-r1" x="1464" y="117.6" textLength="12.2" clip-path="url(#terminal-157788573-line-4)">
</text><text class="terminal-157788573-r3" x="183" y="142" textLength="658.8" clip-path="url(#terminal-157788573-line-5)">&#160;&#160;&#160;╰──&#160;Get&#160;a&#160;guitar&#160;&#160;&#160;&#160;&#160;&#160;&#160;&#160;&#160;&#160;&#160;&#160;&#160;&#160;&#160;&#160;&#160;&#160;&#160;&#160;&#160;&#160;&#160;&#160;&#160;&#160;&#160;&#160;&#160;&#160;&#160;&#160;&#160;&#160;&#160;</text><text class="terminal-157788573-r1" x="1464" y="142" textLength="12.2" clip-path="url(#terminal-157788573-line-5)">
</text><text class="terminal-157788573-r10" x="24.4" y="166.4" textLength="109.8" clip-path="url(#terminal-157788573-line-6)">!&#160;overdue</text><text class="terminal-157788573-r7" x="219.6" y="166.4" textLength="122" clip-path="url(#terminal-157788573-line-6)">@&#160;Fix&#160;bike</text><text class="terminal-157788573-r8" x="854" y="166.4" textLength="73.2" clip-path="url(#terminal-157788573-line-6)">→&#160;jan.</text><text class="terminal-157788573-r1" x="1464" y="166.4" textLength="12.2" clip-path="url(#terminal-157788573-line-6)">
</text><text class="terminal-157788573-r3" x="183" y="190.8" textLength="658.8" clip-path="url(#terminal-157788573-line-7)">&#160;&#160;&#160;├──&#160;Buy&#160;inner&#160;tube&#160;&#160;&#160;&#160;&#160;&#160;&#160;&#160;&#160;&#160;&#160;&#160;&#160;&#160;&#160;&#160;&#160;&#160;&#160;&#160;&#160;&#160;&#160;&#160;&#160;&#160;&#160;&#160;&#160;&#160;&#160;&#160;&#160;</text><text class="terminal-157788573-r1" x="1464" y="190.8" textLength="12.2" clip-path="url(#terminal-157788573-line-7)">
</text><text class="terminal-157788573-r11" x="24.4" y="215.2" textLength="134.2" clip-path="url(#terminal-157788573-line-8)">·&#160;forgotten</text><text class="terminal-157788573-r3" x="183" y="215.2" textLength="658.8" clip-path="url(#terminal-157788573-line-8)">&#160;&#160;&#160;╰──&#160;Check&#160;brakes&#160;&#160;&#160;&#160;&#160;&#160;&#160;&#160;&#160;&#160;&#160;&#160;&#160;&#160;&#160;&#160;&#160;&#160;&#160;&#160;&#160;&#160;&#160;&#160;&#160;&#160;&#160;&#160;&#160;&#160;&#160;&#160;&#160;&#160;&#160;</text><text class="terminal-157788573-r8" x="854" y="215.2" textLength="61" clip-path="url(#terminal-157788573-line-8)">↻&#160;sun</text><text class="terminal-157788573-r1" x="1464" y="215.2" textLength="12.2" clip-path="url(#terminal-157788573-line-8)">
</text><text class="terminal-157788573-r7" x="219.6" y="239.6" textLength="207.4" clip-path="url(#terminal-157788573-line-9)">@&#160;Read&#160;more&#160;books</text><text class="terminal-157788573-r1" x="1464" y="239.6" textLength="12.2" clip-path="url(#terminal-157788573-line-9)">
</text><text class="terminal-157788573-r1" x="1464" y="264" textLength="12.2" clip-path="url(#terminal-157788573-line-10)">
</text><text class="terminal-157788573-r1" x="1464" y="288.4" textLength="12.2" clip-path="url(#terminal-157788573-line-11)">
</text><text class="terminal-157788573-r1" x="1464" y="312.8" textLength="12.2" clip-path="url(#terminal-157788573-line-12)">
</text><text class="terminal-157788573-r1" x="1464" y="337.2" textLength="12.2" clip-path="url(#terminal-157788573-line-13)">
</text><text class="terminal-157788573-r1" x="1464" y="361.6" textLength="12.2" clip-path="url(#terminal-157788573-line-14)">
</text><text class="terminal-157788573-r1" x="1464" y="386" textLength="12.2" clip-path="url(#terminal-157788573-line-15)">
</text><text class="terminal-157788573-r1" x="1464" y="410.4" textLength="12.2" clip-path="url(#terminal-157788573-line-16)">
</text><text class="terminal-157788573-r1" x="1464" y="434.8" textLength="12.2" clip-path="url(#terminal-157788573-line-17)">
</text><text class="terminal-157788573-r1" x="1464" y="459.2" textLength="12.2" clip-path="url(#terminal-157788573-line-18)">
</text><text class="terminal-157788573-r1" x="1464" y="483.6" textLength="12.2" clip-path="url(#terminal-157788573-line-19)">
</text><text class="terminal-157788573-r1" x="1464" y="508" textLength="12.2" clip-path="url(#terminal-157788573-line-20)">
</text><text class="terminal-157788573-r1" x="1464" y="532.4" textLength="12.2" clip-path="url(#terminal-157788573-line-21)">
</text><text class="terminal-157788573-r1" x="1464" y="556.8" textLength="12.2" clip-path="url(#terminal-157788573-line-22)">
</text><text class="terminal-157788573-r1" x="1464" y="581.2" textLength="12.2" clip-path="url(#terminal-157788573-line-23)">
</text><text class="terminal-157788573-r1" x="1464" y="605.6" textLength="12.2" clip-path="url(#terminal-157788573-line-24)">
</text><text class="terminal-157788573-r1" x="1464" y="630" textLength="12.2" clip-path="url(#terminal-157788573-line-25)">
</text><text class="terminal-157788573-r1" x="1464" y="654.4" textLength="12.2" clip-path="url(#terminal-157788573-line-26)">
</text><text class="terminal-157788573-r1" x="1464" y="678.8" textLength="12.2" clip-path="url(#terminal-157788573-line-27)">
</text><text class="terminal-157788573-r1" x="1464" y="703.2" textLength="12.2" clip-path="url(#terminal-157788573-line-28)">
</text><text class="terminal-157788573-r1" x="1464" y="727.6" textLength="12.2" clip-path="url(#terminal-157788573-line-29)">
</text><text class="terminal-157788573-r1" x="1464" y="752" textLength="12.2" clip-path="url(#terminal-157788573-line-30)">
</text><text class="terminal-157788573-r1" x="1464" y="776.4" textLength="12.2" clip-path="url(#terminal-157788573-line-31)">
</text><text class="terminal-157788573-r1" x="1464" y="800.8" textLength="12.2" clip-path="url(#terminal-157788573-line-32)">
</text><text class="terminal-157788573-r1" x="1464" y="825.2" textLength="12.2" clip-path="url(#terminal-157788573-line-33)">
</text><text class="terminal-157788573-r1" x="1464" y="849.6" textLength="12.2" clip-path="url(#terminal-157788573-line-34)">
</text><text class="terminal-157788573-r1" x="1464" y="874" textLength="12.2" clip-path="url(#terminal-157788573-line-35)">
</text><text class="terminal-157788573-r1" x="1464" y="898.4" textLength="12.2" clip-path="url(#terminal-157788573-line-36)">
</text><text class="terminal-157788573-r1" x="1464" y="922.8" textLength="12.2" clip-path="url(#terminal-157788573-line-37)">
</text><text class="terminal-157788573-r1" x="1464" y="947.2" textLength="12.2" clip-path="url(#terminal-157788573-line-38)">
</text><text class="terminal-157788573-r12" x="0" y="971.6" textLength="36.6" clip-path="url(#terminal-157788573-line-39)">&#160;q&#160;</text><text class="terminal-157788573-r3" x="36.6" y="971.6" textLength="61" clip-path="url(#terminal-157788573-line-39)">Quit&#160;</text><text class="terminal-157788573-r12" x="97.6" y="971.6" textLength="36.6" clip-path="url(#terminal-157788573-line-39)">&#160;h&#160;</text><text class="terminal-157788573-r3" x="134.2" y="971.6" textLength="61" clip-path="url(#terminal-157788573-line-39)">Home&#160;</text><text class="terminal-157788573-r12" x="195.2" y="971.6" textLength="61" clip-path="url(#terminal-157788573-line-39)">&#160;esc&#160;</text><text class="terminal-157788573-r3" x="256.2" y="971.6" textLength="61" clip-path="url(#terminal-157788573-line-39)">Back&#160;</text><text class="terminal-157788573-r12" x="317.2" y="971.6" textLength="36.6" clip-path="url(#terminal-157788573-line-39)">&#160;e&#160;</text><text class="terminal-157788573-r3" x="353.8" y="971.6" textLength="61" clip-path="url(#terminal-157788573-line-39)">Edit&#160;</text><text class="terminal-157788573-r12" x="414.8" y="971.6" textLength="36.6" clip-path="url(#terminal-157788573-line-39)">&#160;a&#160;</text><text class="terminal-157788573-r3" x="451.4" y="971.6" textLength="85.4" clip-path="url(#terminal-157788573-line-39)">Append&#160;</text><text class="terminal-157788573-r12" x="536.8" y="971.6" textLength="36.6" clip-path="url(#terminal-157788573-line-39)">&#160;z&#160;</text><text class="terminal-157788573-r3" x="573.4" y="971.6" textLength="146.4" clip-path="url(#terminal-157788573-line-39)">Link&#160;parent&#160;</text><text class="terminal-157788573-r12" x="719.8" y="971.6" textLength="36.6" clip-path="url(#terminal-157788573-line-39)">&#160;d&#160;</text><text class="terminal-157788573-r3" x="756.4" y="971.6" textLength="85.4" clip-path="url(#terminal-157788573-line-39)">Delete&#160;</text><text class="terminal-157788573-r12" x="841.8" y="971.6" textLength="36.6" clip-path="url(#terminal-157788573-line-39)">&#160;y&#160;</text><text class="terminal-157788573-r3" x="878.4" y="971.6" textLength="122" clip-path="url(#terminal-157788573-line-39)">Copy&#160;view&#160;</text><text class="terminal-157788573-r12" x="1000.4" y="971.6" textLength="36.6" clip-path="url(#terminal-157788573-line-39)">&#160;s&#160;</text><text class="terminal-157788573-r3" x="1037" y="971.6" textLength="85.4" clip-path="url(#terminal-157788573-line-39)">Search&#160;</text><text class="terminal-157788573-r12" x="1122.4" y="971.6" textLength="48.8" clip-path="url(#terminal-157788573-line-39)">&#160;f2&#160;</text><text class="terminal-157788573-r3" x="1171.2" y="971.6" textLength="36.6" clip-path="url(#terminal-157788573-line-39)">AI&#160;</text>
    </g>
    </g>
</svg>
