<svg class="rich-terminal" viewBox="0 0 1482 1026.0" xmlns="http://www.w3.org/2000/svg">
    <!-- Generated with Rich https://www.textualize.io -->
    <style>

    @font-face {
        font-family: "Fira Code";
        src: local("FiraCode-Regular"),
                url("https://cdnjs.cloudflare.com/ajax/libs/firacode/6.2.0/woff2/FiraCode-Regular.woff2") format("woff2"),
                url("https://cdnjs.cloudflare.com/ajax/libs/firacode/6.2.0/woff/FiraCode-Regular.woff") format("woff");
        font-style: normal;
        font-weight: 400;
    }
    @font-face {
        font-family: "Fira Code";
        src: local("FiraCode-Bold"),
                url("https://cdnjs.cloudflare.com/ajax/libs/firacode/6.2.0/woff2/FiraCode-Bold.woff2") format("woff2"),
                url("https://cdnjs.cloudflare.com/ajax/libs/firacode/6.2.0/woff/FiraCode-Bold.woff") format("woff");
        font-style: bold;
        font-weight: 700;
    }

    .terminal-1086195030-matrix {
        font-family: Fira Code, monospace;
        font-size: 20px;
        line-height: 24.4px;
        font-variant-east-asian: full-width;
    }

    .terminal-1086195030-title {
        font-size: 18px;
        font-weight: bold;
        font-family: arial;
    }

    .terminal-1086195030-r1 { fill: #c5c8c6 }
.terminal-1086195030-r2 { fill: #242f38;font-weight: bold }
.terminal-1086195030-r3 { fill: #e0e0e0 }
.terminal-1086195030-r4 { fill: #a0a3a6 }
.terminal-1086195030-r5 { fill: #ffff00 }
.terminal-1086195030-r6 { fill: #008000 }
.terminal-1086195030-r7 { fill: #4f4f4f }
.terminal-1086195030-r8 { fill: #f0ead0 }
.terminal-1086195030-r9 { fill: #e0e0e0;font-weight: bold }
.terminal-1086195030-r10 { fill: #7ab8d4 }
.terminal-1086195030-r11 { fill: #9b8a3a }
.terminal-1086195030-r12 { fill: #7ec87f }
.terminal-1086195030-r13 { fill: #ffa62b;font-weight: bold }
    </style>

    <defs>
    <clipPath id="terminal-1086195030-clip-terminal">
      <rect x="0" y="0" width="1463.0" height="975.0" />
    </clipPath>
    <clipPath id="terminal-1086195030-line-0">
    <rect x="0" y="1.5" width="1464" height="24.65"/>
            </clipPath>
<clipPath id="terminal-1086195030-line-1">
    <rect x="0" y="25.9" width="1464" height="24.65"/>
            </clipPath>
<clipPath id="terminal-1086195030-line-2">
    <rect x="0" y="50.3" width="1464" height="24.65"/>
            </clipPath>
<clipPath id="terminal-1086195030-line-3">
    <rect x="0" y="74.7" width="1464" height="24.65"/>
            </clipPath>
<clipPath id="terminal-1086195030-line-4">
    <rect x="0" y="99.1" width="1464" height="24.65"/>
            </clipPath>
<clipPath id="terminal-1086195030-line-5">
    <rect x="0" y="123.5" width="1464" height="24.65"/>
            </clipPath>
<clipPath id="terminal-1086195030-line-6">
    <rect x="0" y="147.9" width="1464" height="24.65"/>
            </clipPath>
<clipPath id="terminal-1086195030-line-7">
    <rect x="0" y="172.3" width="1464" height="24.65"/>
            </clipPath>
<clipPath id="terminal-1086195030-line-8">
    <rect x="0" y="196.7" width="1464" height="24.65"/>
            </clipPath>
<clipPath id="terminal-1086195030-line-9">
    <rect x="0" y="221.1" width="1464" height="24.65"/>
            </clipPath>
<clipPath id="terminal-1086195030-line-10">
    <rect x="0" y="245.5" width="1464" height="24.65"/>
            </clipPath>
<clipPath id="terminal-1086195030-line-11">
    <rect x="0" y="269.9" width="1464" height="24.65"/>
            </clipPath>
<clipPath id="terminal-1086195030-line-12">
    <rect x="0" y="294.3" width="1464" height="24.65"/>
            </clipPath>
<clipPath id="terminal-1086195030-line-13">
    <rect x="0" y="318.7" width="1464" height="24.65"/>
            </clipPath>
<clipPath id="terminal-1086195030-line-14">
    <rect x="0" y="343.1" width="1464" height="24.65"/>
            </clipPath>
<clipPath id="terminal-1086195030-line-15">
    <rect x="0" y="367.5" width="1464" height="24.65"/>
            </clipPath>
<clipPath id="terminal-1086195030-line-16">
    <rect x="0" y="391.9" width="1464" height="24.65"/>
            </clipPath>
<clipPath id="terminal-1086195030-line-17">
    <rect x="0" y="416.3" width="1464" height="24.65"/>
            </clipPath>
<clipPath id="terminal-1086195030-line-18">
    <rect x="0" y="440.7" width="1464" height="24.65"/>
            </clipPath>
<clipPath id="terminal-1086195030-line-19">
    <rect x="0" y="465.1" width="1464" height="24.65"/>
            </clipPath>
<clipPath id="terminal-1086195030-line-20">
    <rect x="0" y="489.5" width="1464" height="24.65"/>
            </clipPath>
<clipPath id="terminal-1086195030-line-21">
    <rect x="0" y="513.9" width="1464" height="24.65"/>
            </clipPath>
<clipPath id="terminal-1086195030-line-22">
    <rect x="0" y="538.3" width="1464" height="24.65"/>
            </clipPath>
<clipPath id="terminal-1086195030-line-23">
    <rect x="0" y="562.7" width="1464" height="24.65"/>
            </clipPath>
<clipPath id="terminal-1086195030-line-24">
    <rect x="0" y="587.1" width="1464" height="24.65"/>
            </clipPath>
<clipPath id="terminal-1086195030-line-25">
    <rect x="0" y="611.5" width="1464" height="24.65"/>
            </clipPath>
<clipPath id="terminal-1086195030-line-26">
    <rect x="0" y="635.9" width="1464" height="24.65"/>
            </clipPath>
<clipPath id="terminal-1086195030-line-27">
    <rect x="0" y="660.3" width="1464" height="24.65"/>
            </clipPath>
<clipPath id="terminal-1086195030-line-28">
    <rect x="0" y="684.7" width="1464" height="24.65"/>
            </clipPath>
<clipPath id="terminal-1086195030-line-29">
    <rect x="0" y="709.1" width="1464" height="24.65"/>
            </clipPath>
<clipPath id="terminal-1086195030-line-30">
    <rect x="0" y="733.5" width="1464" height="24.65"/>
            </clipPath>
<clipPath id="terminal-1086195030-line-31">
    <rect x="0" y="757.9" width="1464" height="24.65"/>
            </clipPath>
<clipPath id="terminal-1086195030-line-32">
    <rect x="0" y="782.3" width="1464" height="24.65"/>
            </clipPath>
<clipPath id="terminal-1086195030-line-33">
    <rect x="0" y="806.7" width="1464" height="24.65"/>
            </clipPath>
<clipPath id="terminal-1086195030-line-34">
    <rect x="0" y="831.1" width="1464" height="24.65"/>
            </clipPath>
<clipPath id="terminal-1086195030-line-35">
    <rect x="0" y="855.5" width="1464" height="24.65"/>
            </clipPath>
<clipPath id="terminal-1086195030-line-36">
    <rect x="0" y="879.9" width="1464" height="24.65"/>
            </clipPath>
<clipPath id="terminal-1086195030-line-37">
    <rect x="0" y="904.3" width="1464" height="24.65"/>
            </clipPath>
<clipPath id="terminal-1086195030-line-38">
    <rect x="0" y="928.7" width="1464" height="24.65"/>
            </clipPath>
    </defs>

    <rect fill="#292929" stroke="rgba(255,255,255,0.35)" stroke-width="1" x="1" y="1" width="1480" height="1024" rx="8"/><text class="terminal-1086195030-title" fill="#c5c8c6" text-anchor="middle" x="740" y="27">pfq</text>
            <g transform="translate(26,22)">
            <circle cx="0" cy="0" r="7" fill="#ff5f57"/>
            <circle cx="22" cy="0" r="7" fill="#febc2e"/>
            <circle cx="44" cy="0" r="7" fill="#28c840"/>
            </g>
        
    <g transform="translate(9, 41)" clip-path="url(#terminal-1086195030-clip-terminal)">
    <rect fill="#242f38" x="0" y="1.5" width="12.2" height="24.65" shape-rendering="crispEdges"/><rect fill="#e0e0e0" x="12.2" y="1.5" width="85.4" height="24.65" shape-rendering="crispEdges"/><rect fill="#242f38" x="97.6" y="1.5" width="268.4" height="24.65" shape-rendering="crispEdges"/><rect fill="#242f38" x="366" y="1.5" width="97.6" height="24.65" shape-rendering="crispEdges"/><rect fill="#242f38" x="463.6" y="1.5" width="24.4" height="24.65" shape-rendering="crispEdges"/><rect fill="#242f38" x="488" y="1.5" width="12.2" height="24.65" shape-rendering="crispEdges"/><rect fill="#242f38" x="500.2" y="1.5" width="24.4" height="24.65" shape-rendering="crispEdges"/><rect fill="#242f38" x="524.6" y="1.5" width="12.2" height="24.65" shape-rendering="crispEdges"/><rect fill="#242f38" x="536.8" y="1.5" width="915" height="24.65" shape-rendering="crispEdges"/><rect fill="#242f38" x="1451.8" y="1.5" width="12.2" height="24.65" shape-rendering="crispEdges"/><rect fill="#121212" x="0" y="25.9" width="1464" height="24.65" shape-rendering="crispEdges"/><rect fill="#121212" x="0" y="50.3" width="12.2" height="24.65" shape-rendering="crispEdges"/><rect fill="#121212" x="12.2" y="50.3" width="183" height="24.65" shape-rendering="crispEdges"/><rect fill="#121212" x="195.2" y="50.3" width="463.6" height="24.65" shape-rendering="crispEdges"/><rect fill="#121212" x="658.8" y="50.3" width="244" height="24.65" shape-rendering="crispEdges"/><rect fill="#121212" x="902.8" y="50.3" width="549" height="24.65" shape-rendering="crispEdges"/><rect fill="#121212" x="1451.8" y="50.3" width="12.2" height="24.65" shape-rendering="crispEdges"/><rect fill="#121212" x="0" y="74.7" width="12.2" height="24.65" shape-rendering="crispEdges"/><rect fill="#2e2600" x="12.2" y="74.7" width="183" height="24.65" shape-rendering="crispEdges"/><rect fill="#121212" x="195.2" y="74.7" width="36.6" height="24.65" shape-rendering="crispEdges"/><rect fill="#121212" x="231.8" y="74.7" width="170.8" height="24.65" shape-rendering="crispEdges"/><rect fill="#121212" x="402.6" y="74.7" width="256.2" height="24.65" shape-rendering="crispEdges"/><rect fill="#121212" x="658.8" y="74.7" width="244" height="24.65" shape-rendering="crispEdges"/><rect fill="#121212" x="902.8" y="74.7" width="549" height="24.65" shape-rendering="crispEdges"/><rect fill="#121212" x="1451.8" y="74.7" width="12.2" height="24.65" shape-rendering="crispEdges"/><rect fill="#121212" x="0" y="99.1" width="12.2" height="24.65" shape-rendering="crispEdges"/><rect fill="#121212" x="12.2" y="99.1" width="12.2" height="24.65" shape-rendering="crispEdges"/><rect fill="#121212" x="24.4" y="99.1" width="85.4" height="24.65" shape-rendering="crispEdges"/><rect fill="#121212" x="109.8" y="99.1" width="85.4" height="24.65" shape-rendering="crispEdges"/><rect fill="#121212" x="195.2" y="99.1" width="463.6" height="24.65" shape-rendering="crispEdges"/><rect fill="#121212" x="658.8" y="99.1" width="244" height="24.65" shape-rendering="crispEdges"/><rect fill="#121212" x="902.8" y="99.1" width="549" height="24.65" shape-rendering="crispEdges"/><rect fill="#121212" x="1451.8" y="99.1" width="12.2" height="24.65" shape-rendering="crispEdges"/><rect fill="#121212" x="0" y="123.5" width="12.2" height="24.65" shape-rendering="crispEdges"/><rect fill="#121212" x="12.2" y="123.5" width="183" height="24.65" shape-rendering="crispEdges"/><rect fill="#121212" x="195.2" y="123.5" width="463.6" height="24.65" shape-rendering="crispEdges"/><rect fill="#121212" x="658.8" y="123.5" width="244" height="24.65" shape-rendering="crispEdges"/><rect fill="#121212" x="902.8" y="123.5" width="549" height="24.65" shape-rendering="crispEdges"/><rect fill="#121212" x="1451.8" y="123.5" width="12.2" height="24.65" shape-rendering="crispEdges"/><rect fill="#121212" x="0" y="147.9" width="12.2" height="24.65" shape-rendering="crispEdges"/><rect fill="#121212" x="12.2" y="147.9" width="12.2" height="24.65" shape-rendering="crispEdges"/><rect fill="#121212" x="24.4" y="147.9" width="73.2" height="24.65" shape-rendering="crispEdges"/><rect fill="#121212" x="97.6" y="147.9" width="97.6" height="24.65" shape-rendering="crispEdges"/><rect fill="#121212" x="195.2" y="147.9" width="463.6" height="24.65" shape-rendering="crispEdges"/><rect fill="#121212" x="658.8" y="147.9" width="244" height="24.65" shape-rendering="crispEdges"/><rect fill="#121212" x="902.8" y="147.9" width="549" height="24.65" shape-rendering="crispEdges"/><rect fill="#121212" x="1451.8" y="147.9" width="12.2" height="24.65" shape-rendering="crispEdges"/><rect fill="#121212" x="0" y="172.3" width="12.2" height="24.65" shape-rendering="crispEdges"/><rect fill="#121212" x="12.2" y="172.3" width="183" height="24.65" shape-rendering="crispEdges"/><rect fill="#121212" x="195.2" y="172.3" width="36.6" height="24.65" shape-rendering="crispEdges"/><rect fill="#121212" x="231.8" y="172.3" width="207.4" height="24.65" shape-rendering="crispEdges"/><rect fill="#121212" x="439.2" y="172.3" width="219.6" height="24.65" shape-rendering="crispEdges"/><rect fill="#121212" x="658.8" y="172.3" width="244" height="24.65" shape-rendering="crispEdges"/><rect fill="#121212" x="902.8" y="172.3" width="549" height="24.65" shape-rendering="crispEdges"/><rect fill="#121212" x="1451.8" y="172.3" width="12.2" height="24.65" shape-rendering="crispEdges"/><rect fill="#121212" x="0" y="196.7" width="12.2" height="24.65" shape-rendering="crispEdges"/><rect fill="#121212" x="12.2" y="196.7" width="12.2" height="24.65" shape-rendering="crispEdges"/><rect fill="#121212" x="24.4" y="196.7" width="85.4" height="24.65" shape-rendering="crispEdges"/><rect fill="#121212" x="109.8" y="196.7" width="85.4" height="24.65" shape-rendering="crispEdges"/><rect fill="#121212" x="195.2" y="196.7" width="36.6" height="24.65" shape-rendering="crispEdges"/><rect fill="#121212" x="231.8" y="196.7" width="280.6" height="24.65" shape-rendering="crispEdges"/><rect fill="#121212" x="512.4" y="196.7" width="146.4" height="24.65" shape-rendering="crispEdges"/><rect fill="#121212" x="658.8" y="196.7" width="244" height="24.65" shape-rendering="crispEdges"/><rect fill="#121212" x="902.8" y="196.7" width="549" height="24.65" shape-rendering="crispEdges"/><rect fill="#121212" x="1451.8" y="196.7" width="12.2" height="24.65" shape-rendering="crispEdges"/><rect fill="#121212" x="0" y="221.1" width="12.2" height="24.65" shape-rendering="crispEdges"/><rect fill="#121212" x="12.2" y="221.1" width="12.2" height="24.65" shape-rendering="crispEdges"/><rect fill="#121212" x="24.4" y="221.1" width="85.4" height="24.65" shape-rendering="crispEdges"/><rect fill="#121212" x="109.8" y="221.1" width="85.4" height="24.65" shape-rendering="crispEdges"/><rect fill="#121212" x="195.2" y="221.1" width="463.6" height="24.65" shape-rendering="crispEdges"/><rect fill="#121212" x="658.8" y="221.1" width="244" height="24.65" shape-rendering="crispEdges"/><rect fill="#121212" x="902.8" y="221.1" width="549" height="24.65" shape-rendering="crispEdges"/><rect fill="#121212" x="1451.8" y="221.1" width="12.2" height="24.65" shape-rendering="crispEdges"/><rect fill="#121212" x="0" y="245.5" width="12.2" height="24.65" shape-rendering="crispEdges"/><rect fill="#121212" x="12.2" y="245.5" width="183" height="24.65" shape-rendering="crispEdges"/><rect fill="#121212" x="195.2" y="245.5" width="463.6" height="24.65" shape-rendering="crispEdges"/><rect fill="#121212" x="658.8" y="245.5" width="244" height="24.65" shape-rendering="crispEdges"/><rect fill="#121212" x="902.8" y="245.5" width="549" height="24.65" shape-rendering="crispEdges"/><rect fill="#121212" x="1451.8" y="245.5" width="12.2" height="24.65" shape-rendering="crispEdges"/><rect fill="#121212" x="0" y="269.9" width="12.2" height="24.65" shape-rendering="crispEdges"/><rect fill="#121212" x="12.2" y="269.9" width="12.2" height="24.65" shape-rendering="crispEdges"/><rect fill="#121212" x="24.4" y="269.9" width="73.2" height="24.65" shape-rendering="crispEdges"/><rect fill="#121212" x="97.6" y="269.9" width="97.6" height="24.65" shape-rendering="crispEdges"/><rect fill="#121212" x="195.2" y="269.9" width="463.6" height="24.65" shape-rendering="crispEdges"/><rect fill="#121212" x="658.8" y="269.9" width="244" height="24.65" shape-rendering="crispEdges"/><rect fill="#121212" x="902.8" y="269.9" width="549" height="24.65" shape-rendering="crispEdges"/><rect fill="#121212" x="1451.8" y="269.9" width="12.2" height="24.65" shape-rendering="crispEdges"/><rect fill="#121212" x="0" y="294.3" width="12.2" height="24.65" shape-rendering="crispEdges"/><rect fill="#121212" x="12.2" y="294.3" width="12.2" height="24.65" shape-rendering="crispEdges"/><rect fill="#121212" x="24.4" y="294.3" width="73.2" height="24.65" shape-rendering="crispEdges"/><rect fill="#121212" x="97.6" y="294.3" width="97.6" height="24.65" shape-rendering="crispEdges"/><rect fill="#121212" x="195.2" y="294.3" width="36.6" height="24.65" shape-rendering="crispEdges"/><rect fill="#121212" x="231.8" y="294.3" width="341.6" height="24.65" shape-rendering="crispEdges"/><rect fill="#121212" x="573.4" y="294.3" width="85.4" height="24.65" shape-rendering="crispEdges"/><rect fill="#121212" x="658.8" y="294.3" width="244" height="24.65" shape-rendering="crispEdges"/><rect fill="#121212" x="902.8" y="294.3" width="549" height="24.65" shape-rendering="crispEdges"/><rect fill="#121212" x="1451.8" y="294.3" width="12.2" height="24.65" shape-rendering="crispEdges"/><rect fill="#121212" x="0" y="318.7" width="12.2" height="24.65" shape-rendering="crispEdges"/><rect fill="#121212" x="12.2" y="318.7" width="183" height="24.65" shape-rendering="crispEdges"/><rect fill="#121212" x="195.2" y="318.7" width="463.6" height="24.65" shape-rendering="crispEdges"/><rect fill="#121212" x="658.8" y="318.7" width="12.2" height="24.65" shape-rendering="crispEdges"/><rect fill="#121212" x="671" y="318.7" width="170.8" height="24.65" shape-rendering="crispEdges"/><rect fill="#121212" x="841.8" y="318.7" width="61" height="24.65" shape-rendering="crispEdges"/><rect fill="#121212" x="902.8" y="318.7" width="549" height="24.65" shape-rendering="crispEdges"/><rect fill="#121212" x="1451.8" y="318.7" width="12.2" height="24.65" shape-rendering="crispEdges"/><rect fill="#121212" x="0" y="343.1" width="12.2" height="24.65" shape-rendering="crispEdges"/><rect fill="#121212" x="12.2" y="343.1" width="183" height="24.65" shape-rendering="crispEdges"/><rect fill="#121212" x="195.2" y="343.1" width="463.6" height="24.65" shape-rendering="crispEdges"/><rect fill="#121212" x="658.8" y="343.1" width="12.2" height="24.65" shape-rendering="crispEdges"/><rect fill="#121212" x="671" y="343.1" width="170.8" height="24.65" shape-rendering="crispEdges"/><rect fill="#121212" x="841.8" y="343.1" width="61" height="24.65" shape-rendering="crispEdges"/><rect fill="#121212" x="902.8" y="343.1" width="549" height="24.65" shape-rendering="crispEdges"/><rect fill="#121212" x="1451.8" y="343.1" width="12.2" height="24.65" shape-rendering="crispEdges"/><rect fill="#121212" x="0" y="367.5" width="12.2" height="24.65" shape-rendering="crispEdges"/><rect fill="#121212" x="12.2" y="367.5" width="12.2" height="24.65" shape-rendering="crispEdges"/><rect fill="#121212" x="24.4" y="367.5" width="73.2" height="24.65" shape-rendering="crispEdges"/><rect fill="#121212" x="97.6" y="367.5" width="97.6" height="24.65" shape-rendering="crispEdges"/><rect fill="#121212" x="195.2" y="367.5" width="463.6" height="24.65" shape-rendering="crispEdges"/><rect fill="#121212" x="658.8" y="367.5" width="244" height="24.65" shape-rendering="crispEdges"/><rect fill="#121212" x="902.8" y="367.5" width="549" height="24.65" shape-rendering="crispEdges"/><rect fill="#121212" x="1451.8" y="367.5" width="12.2" height="24.65" shape-rendering="crispEdges"/><rect fill="#121212" x="0" y="391.9" width="12.2" height="24.65" shape-rendering="crispEdges"/><rect fill="#121212" x="12.2" y="391.9" width="12.2" height="24.65" shape-rendering="crispEdges"/><rect fill="#121212" x="24.4" y="391.9" width="109.8" height="24.65" shape-rendering="crispEdges"/><rect fill="#121212" x="134.2" y="391.9" width="61" height="24.65" shape-rendering="crispEdges"/><rect fill="#121212" x="195.2" y="391.9" width="36.6" height="24.65" shape-rendering="crispEdges"/><rect fill="#121212" x="231.8" y="391.9" width="329.4" height="24.65" shape-rendering="crispEdges"/><rect fill="#121212" x="561.2" y="391.9" width="97.6" height="24.65" shape-rendering="crispEdges"/><rect fill="#121212" x="658.8" y="391.9" width="244" height="24.65" shape-rendering="crispEdges"/><rect fill="#121212" x="902.8" y="391.9" width="549" height="24.65" shape-rendering="crispEdges"/><rect fill="#121212" x="1451.8" y="391.9" width="12.2" height="24.65" shape-rendering="crispEdges"/><rect fill="#121212" x="0" y="416.3" width="12.2" height="24.65" shape-rendering="crispEdges"/><rect fill="#121212" x="12.2" y="416.3" width="12.2" height="24.65" shape-rendering="crispEdges"/><rect fill="#121212" x="24.4" y="416.3" width="109.8" height="24.65" shape-rendering="crispEdges"/><rect fill="#121212" x="134.2" y="416.3" width="61" height="24.65" shape-rendering="crispEdges"/><rect fill="#121212" x="195.2" y="416.3" width="463.6" height="24.65" shape-rendering="crispEdges"/><rect fill="#121212" x="658.8" y="416.3" width="244" height="24.65" shape-rendering="crispEdges"/><rect fill="#121212" x="902.8" y="416.3" width="549" height="24.65" shape-rendering="crispEdges"/><rect fill="#121212" x="1451.8" y="416.3" width="12.2" height="24.65" shape-rendering="crispEdges"/><rect fill="#121212" x="0" y="440.7" width="12.2" height="24.65" shape-rendering="crispEdges"/><rect fill="#121212" x="12.2" y="440.7" width="12.2" height="24.65" shape-rendering="crispEdges"/><rect fill="#121212" x="24.4" y="440.7" width="73.2" height="24.65" shape-rendering="crispEdges"/><rect fill="#121212" x="97.6" y="440.7" width="97.6" height="24.65" shape-rendering="crispEdges"/><rect fill="#121212" x="195.2" y="440.7" width="463.6" height="24.65" shape-rendering="crispEdges"/><rect fill="#121212" x="658.8" y="440.7" width="244" height="24.65" shape-rendering="crispEdges"/><rect fill="#121212" x="902.8" y="440.7" width="549" height="24.65" shape-rendering="crispEdges"/><rect fill="#121212" x="1451.8" y="440.7" width="12.2" height="24.65" shape-rendering="crispEdges"/><rect fill="#121212" x="0" y="465.1" width="12.2" height="24.65" shape-rendering="crispEdges"/><rect fill="#121212" x="12.2" y="465.1" width="12.2" height="24.65" shape-rendering="crispEdges"/><rect fill="#121212" x="24.4" y="465.1" width="109.8" height="24.65" shape-rendering="crispEdges"/><rect fill="#121212" x="134.2" y="465.1" width="61" height="24.65" shape-rendering="crispEdges"/><rect fill="#121212" x="195.2" y="465.1" width="463.6" height="24.65" shape-rendering="crispEdges"/><rect fill="#121212" x="658.8" y="465.1" width="244" height="24.65" shape-rendering="crispEdges"/><rect fill="#121212" x="902.8" y="465.1" width="549" height="24.65" shape-rendering="crispEdges"/><rect fill="#121212" x="1451.8" y="465.1" width="12.2" height="24.65" shape-rendering="crispEdges"/><rect fill="#121212" x="0" y="489.5" width="1464" height="24.65" shape-rendering="crispEdges"/><rect fill="#121212" x="0" y="513.9" width="1464" height="24.65" shape-rendering="crispEdges"/><rect fill="#121212" x="0" y="538.3" width="1464" height="24.65" shape-rendering="crispEdges"/><rect fill="#121212" x="0" y="562.7" width="1464" height="24.65" shape-rendering="crispEdges"/><rect fill="#121212" x="0" y="587.1" width="1464" height="24.65" shape-rendering="crispEdges"/><rect fill="#121212" x="0" y="611.5" width="1464" height="24.65" shape-rendering="crispEdges"/><rect fill="#121212" x="0" y="635.9" width="1464" height="24.65" shape-rendering="crispEdges"/><rect fill="#121212" x="0" y="660.3" width="1464" height="24.65" shape-rendering="crispEdges"/><rect fill="#121212" x="0" y="684.7" width="1464" height="24.65" shape-rendering="crispEdges"/><rect fill="#121212" x="0" y="709.1" width="1464" height="24.65" shape-rendering="crispEdges"/><rect fill="#121212" x="0" y="733.5" width="1464" height="24.65" shape-rendering="crispEdges"/><rect fill="#121212" x="0" y="757.9" width="1464" height="24.65" shape-rendering="crispEdges"/><rect fill="#121212" x="0" y="782.3" width="1464" height="24.65" shape-rendering="crispEdges"/><rect fill="#121212" x="0" y="806.7" width="1464" height="24.65" shape-rendering="crispEdges"/><rect fill="#121212" x="0" y="831.1" width="1464" height="24.65" shape-rendering="crispEdges"/><rect fill="#121212" x="0" y="855.5" width="1464" height="24.65" shape-rendering="crispEdges"/><rect fill="#121212" x="0" y="879.9" width="1464" height="24.65" shape-rendering="crispEdges"/><rect fill="#121212" x="0" y="904.3" width="1464" height="24.65" shape-rendering="crispEdges"/><rect fill="#121212" x="0" y="928.7" width="1464" height="24.65" shape-rendering="crispEdges"/><rect fill="#242f38" x="0" y="953.1" width="36.6" height="24.65" shape-rendering="crispEdges"/><rect fill="#242f38" x="36.6" y="953.1" width="61" height="24.65" shape-rendering="crispEdges"/><rect fill="#242f38" x="97.6" y="953.1" width="48.8" height="24.65" shape-rendering="crispEdges"/><rect fill="#242f38" x="146.4" y="953.1" width="61" height="24.65" shape-rendering="crispEdges"/><rect fill="#242f38" x="207.4" y="953.1" width="36.6" height="24.65" shape-rendering="crispEdges"/><rect fill="#242f38" x="244" y="953.1" width="61" height="24.65" shape-rendering="crispEdges"/><rect fill="#242f38" x="305" y="953.1" width="61" height="24.65" shape-rendering="crispEdges"/><rect fill="#242f38" x="366" y="953.1" width="61" height="24.65" shape-rendering="crispEdges"/><rect fill="#242f38" x="427" y="953.1" width="36.6" height="24.65" shape-rendering="crispEdges"/><rect fill="#242f38" x="463.6" y="953.1" width="61" height="24.65" shape-rendering="crispEdges"/><rect fill="#242f38" x="524.6" y="953.1" width="36.6" height="24.65" shape-rendering="crispEdges"/><rect fill="#242f38" x="561.2" y="953.1" width="85.4" height="24.65" shape-rendering="crispEdges"/><rect fill="#242f38" x="646.6" y="953.1" width="36.6" height="24.65" shape-rendering="crispEdges"/><rect fill="#242f38" x="683.2" y="953.1" width="146.4" height="24.65" shape-rendering="crispEdges"/><rect fill="#242f38" x="829.6" y="953.1" width="36.6" height="24.65" shape-rendering="crispEdges"/><rect fill="#242f38" x="866.2" y="953.1" width="85.4" height="24.65" shape-rendering="crispEdges"/><rect fill="#242f38" x="951.6" y="953.1" width="36.6" height="24.65" shape-rendering="crispEdges"/><rect fill="#242f38" x="988.2" y="953.1" width="122" height="24.65" shape-rendering="crispEdges"/><rect fill="#242f38" x="1110.2" y="953.1" width="36.6" height="24.65" shape-rendering="crispEdges"/><rect fill="#242f38" x="1146.8" y="953.1" width="85.4" height="24.65" shape-rendering="crispEdges"/><rect fill="#242f38" x="1232.2" y="953.1" width="48.8" height="24.65" shape-rendering="crispEdges"/><rect fill="#242f38" x="1281" y="953.1" width="36.6" height="24.65" shape-rendering="crispEdges"/><rect fill="#242f38" x="1317.6" y="953.1" width="146.4" height="24.65" shape-rendering="crispEdges"/>
    <g class="terminal-1086195030-matrix">
    <text class="terminal-1086195030-r2" x="12.2" y="20" textLength="85.4" clip-path="url(#terminal-1086195030-line-0)">&#160;p&#160;f&#160;q&#160;</text><text class="terminal-1086195030-r3" x="97.6" y="20" textLength="268.4" clip-path="url(#terminal-1086195030-line-0)">&#160;&#160;vault:&#160;test_vault/&#160;&#160;</text><text class="terminal-1086195030-r4" x="366" y="20" textLength="97.6" clip-path="url(#terminal-1086195030-line-0)">⟳&#160;origin</text><text class="terminal-1086195030-r5" x="488" y="20" textLength="12.2" clip-path="url(#terminal-1086195030-line-0)">●</text><text class="terminal-1086195030-r6" x="524.6" y="20" textLength="12.2" clip-path="url(#terminal-1086195030-line-0)">✓</text><text class="terminal-1086195030-r1" x="1464" y="20" textLength="12.2" clip-path="url(#terminal-1086195030-line-0)">
</text><text class="terminal-1086195030-r1" x="1464" y="44.4" textLength="12.2" clip-path="url(#terminal-1086195030-line-1)">
</text><text class="terminal-1086195030-r7" x="12.2" y="68.8" textLength="183" clip-path="url(#terminal-1086195030-line-2)">&#160;pulse&#160;&#160;&#160;&#160;&#160;&#160;&#160;&#160;&#160;</text><text class="terminal-1086195030-r7" x="195.2" y="68.8" textLength="463.6" clip-path="url(#terminal-1086195030-line-2)">&#160;description&#160;&#160;&#160;&#160;&#160;&#160;&#160;&#160;&#160;&#160;&#160;&#160;&#160;&#160;&#160;&#160;&#160;&#160;&#160;&#160;&#160;&#160;&#160;&#160;&#160;&#160;</text><text class="terminal-1086195030-r7" x="658.8" y="68.8" textLength="244" clip-path="url(#terminal-1086195030-line-2)">&#160;target&#160;&#160;&#160;&#160;&#160;&#160;&#160;&#160;&#160;&#160;&#160;&#160;&#160;</text><text class="terminal-1086195030-r1" x="1464" y="68.8" textLength="12.2" clip-path="url(#terminal-1086195030-line-2)">
</text><text class="terminal-1086195030-r8" x="12.2" y="93.2" textLength="183" clip-path="url(#terminal-1086195030-line-3)">&#160;&#160;&#160;↻&#160;fri&#160;1&#160;&#160;&#160;&#160;&#160;</text><text class="terminal-1086195030-r9" x="231.8" y="93.2" textLength="170.8" clip-path="url(#terminal-1086195030-line-3)">@&#160;Learn&#160;guitar</text><text class="terminal-1086195030-r1" x="1464" y="93.2" textLength="12.2" clip-path="url(#terminal-1086195030-line-3)">
</text><text class="terminal-1086195030-r10" x="24.4" y="117.6" textLength="85.4" clip-path="url(#terminal-1086195030-line-4)">&#160;&#160;↻&#160;sun</text><text class="terminal-1086195030-r3" x="195.2" y="117.6" textLength="463.6" clip-path="url(#terminal-1086195030-line-4)">&#160;&#160;&#160;├──&#160;Practice&#160;chords&#160;&#160;&#160;&#160;&#160;&#160;&#160;&#160;&#160;&#160;&#160;&#160;&#160;&#160;&#160;&#160;</text><text class="terminal-1086195030-r1" x="1464" y="117.6" textLength="12.2" clip-path="url(#terminal-1086195030-line-4)">
</text><text class="terminal-1086195030-r3" x="195.2" y="142" textLength="463.6" clip-path="url(#terminal-1086195030-line-5)">&#160;&#160;&#160;├──&#160;Get&#160;a&#160;guitar&#160;&#160;&#160;&#160;&#160;&#160;&#160;&#160;&#160;&#160;&#160;&#160;&#160;&#160;&#160;&#160;&#160;&#160;&#160;</text><text class="terminal-1086195030-r1" x="1464" y="142" textLength="12.2" clip-path="url(#terminal-1086195030-line-5)">
</text><text class="terminal-1086195030-r11" x="24.4" y="166.4" textLength="73.2" clip-path="url(#terminal-1086195030-line-6)">&#160;&#160;!&#160;1w</text><text class="terminal-1086195030-r3" x="195.2" y="166.4" textLength="463.6" clip-path="url(#terminal-1086195030-line-6)">&#160;&#160;&#160;╰──&#160;Teach&#160;guitar&#160;on&#160;weekends&#160;&#160;&#160;&#160;&#160;&#160;&#160;</text><text class="terminal-1086195030-r1" x="1464" y="166.4" textLength="12.2" clip-path="url(#terminal-1086195030-line-6)">
</text><text class="terminal-1086195030-r9" x="231.8" y="190.8" textLength="207.4" clip-path="url(#terminal-1086195030-line-7)">@&#160;Read&#160;more&#160;books</text><text class="terminal-1086195030-r1" x="1464" y="190.8" textLength="12.2" clip-path="url(#terminal-1086195030-line-7)">
</text><text class="terminal-1086195030-r10" x="24.4" y="215.2" textLength="85.4" clip-path="url(#terminal-1086195030-line-8)">&#160;&#160;↻&#160;sun</text><text class="terminal-1086195030-r9" x="231.8" y="215.2" textLength="280.6" clip-path="url(#terminal-1086195030-line-8)">@&#160;Become&#160;a&#160;bread&#160;wizard</text><text class="terminal-1086195030-r1" x="1464" y="215.2" textLength="12.2" clip-path="url(#terminal-1086195030-line-8)">
</text><text class="terminal-1086195030-r10" x="24.4" y="239.6" textLength="85.4" clip-path="url(#terminal-1086195030-line-9)">&#160;&#160;↻&#160;sun</text><text class="terminal-1086195030-r3" x="195.2" y="239.6" textLength="463.6" clip-path="url(#terminal-1086195030-line-9)">&#160;&#160;&#160;├──&#160;Master&#160;sourdough&#160;&#160;&#160;&#160;&#160;&#160;&#160;&#160;&#160;&#160;&#160;&#160;&#160;&#160;&#160;</text><text class="terminal-1086195030-r1" x="1464" y="239.6" textLength="12.2" clip-path="url(#terminal-1086195030-line-9)">
</text><text class="terminal-1086195030-r3" x="195.2" y="264" textLength="463.6" clip-path="url(#terminal-1086195030-line-10)">&#160;&#160;&#160;├──&#160;Bake&#160;a&#160;baguette&#160;&#160;&#160;&#160;&#160;&#160;&#160;&#160;&#160;&#160;&#160;&#160;&#160;&#160;&#160;&#160;</text><text class="terminal-1086195030-r1" x="1464" y="264" textLength="12.2" clip-path="url(#terminal-1086195030-line-10)">
</text><text class="terminal-1086195030-r11" x="24.4" y="288.4" textLength="73.2" clip-path="url(#terminal-1086195030-line-11)">&#160;&#160;!&#160;1w</text><text class="terminal-1086195030-r3" x="195.2" y="288.4" textLength="463.6" clip-path="url(#terminal-1086195030-line-11)">&#160;&#160;&#160;╰──&#160;Sell&#160;sourdough&#160;at&#160;the&#160;market&#160;&#160;&#160;</text><text class="terminal-1086195030-r1" x="1464" y="288.4" textLength="12.2" clip-path="url(#terminal-1086195030-line-11)">
</text><text class="terminal-1086195030-r11" x="24.4" y="312.8" textLength="73.2" clip-path="url(#terminal-1086195030-line-12)">&#160;&#160;!&#160;4d</text><text class="terminal-1086195030-r9" x="231.8" y="312.8" textLength="341.6" clip-path="url(#terminal-1086195030-line-12)">@&#160;Train&#160;the&#160;cat&#160;to&#160;high-five</text><text class="terminal-1086195030-r1" x="1464" y="312.8" textLength="12.2" clip-path="url(#terminal-1086195030-line-12)">
</text><text class="terminal-1086195030-r3" x="195.2" y="337.2" textLength="463.6" clip-path="url(#terminal-1086195030-line-13)">&#160;&#160;&#160;├──&#160;Buy&#160;suspiciously&#160;expensive&#160;cat&#160;</text><text class="terminal-1086195030-r12" x="671" y="337.2" textLength="170.8" clip-path="url(#terminal-1086195030-line-13)">✓&#160;7w&#160;ago&#160;&#160;(2d)</text><text class="terminal-1086195030-r1" x="1464" y="337.2" textLength="12.2" clip-path="url(#terminal-1086195030-line-13)">
</text><text class="terminal-1086195030-r3" x="195.2" y="361.6" textLength="463.6" clip-path="url(#terminal-1086195030-line-14)">&#160;&#160;&#160;├──&#160;Watch&#160;clicker&#160;training&#160;videos&#160;&#160;</text><text class="terminal-1086195030-r12" x="671" y="361.6" textLength="170.8" clip-path="url(#terminal-1086195030-line-14)">✓&#160;6w&#160;ago&#160;&#160;(1d)</text><text class="terminal-1086195030-r1" x="1464" y="361.6" textLength="12.2" clip-path="url(#terminal-1086195030-line-14)">
</text><text class="terminal-1086195030-r11" x="24.4" y="386" textLength="73.2" clip-path="url(#terminal-1086195030-line-15)">&#160;&#160;!&#160;5d</text><text class="terminal-1086195030-r3" x="195.2" y="386" textLength="463.6" clip-path="url(#terminal-1086195030-line-15)">&#160;&#160;&#160;╰──&#160;Practice&#160;daily&#160;(cat&#160;unimpresse&#160;</text><text class="terminal-1086195030-r1" x="1464" y="386" textLength="12.2" clip-path="url(#terminal-1086195030-line-15)">
</text><text class="terminal-1086195030-r10" x="24.4" y="410.4" textLength="109.8" clip-path="url(#terminal-1086195030-line-16)">&#160;&#160;↻&#160;fri&#160;1</text><text class="terminal-1086195030-r9" x="231.8" y="410.4" textLength="329.4" clip-path="url(#terminal-1086195030-line-16)">@&#160;Have&#160;a&#160;plan&#160;for&#160;next&#160;year</text><text class="terminal-1086195030-r1" x="1464" y="410.4" textLength="12.2" clip-path="url(#terminal-1086195030-line-16)">
</text><text class="terminal-1086195030-r11" x="24.4" y="434.8" textLength="109.8" clip-path="url(#terminal-1086195030-line-17)">&#160;&#160;!&#160;today</text><text class="terminal-1086195030-r3" x="195.2" y="434.8" textLength="463.6" clip-path="url(#terminal-1086195030-line-17)">&#160;&#160;&#160;├──&#160;Figure&#160;out&#160;what&#160;I&#160;actually&#160;wan&#160;</text><text class="terminal-1086195030-r1" x="1464" y="434.8" textLength="12.2" clip-path="url(#terminal-1086195030-line-17)">
</text><text class="terminal-1086195030-r11" x="24.4" y="459.2" textLength="73.2" clip-path="url(#terminal-1086195030-line-18)">&#160;&#160;!&#160;1w</text><text class="terminal-1086195030-r3" x="195.2" y="459.2" textLength="463.6" clip-path="url(#terminal-1086195030-line-18)">&#160;&#160;&#160;├──&#160;Stop&#160;procrastinating&#160;on&#160;the&#160;si&#160;</text><text class="terminal-1086195030-r1" x="1464" y="459.2" textLength="12.2" clip-path="url(#terminal-1086195030-line-18)">
</text><text class="terminal-1086195030-r10" x="24.4" y="483.6" textLength="109.8" clip-path="url(#terminal-1086195030-line-19)">&#160;&#160;↻&#160;fri&#160;1</text><text class="terminal-1086195030-r3" x="195.2" y="483.6" textLength="463.6" clip-path="url(#terminal-1086195030-line-19)">&#160;&#160;&#160;╰──&#160;Get&#160;finances&#160;in&#160;order&#160;&#160;&#160;&#160;&#160;&#160;&#160;&#160;&#160;&#160;</text><text class="terminal-1086195030-r1" x="1464" y="483.6" textLength="12.2" clip-path="url(#terminal-1086195030-line-19)">
</text><text class="terminal-1086195030-r1" x="1464" y="508" textLength="12.2" clip-path="url(#terminal-1086195030-line-20)">
</text><text class="terminal-1086195030-r1" x="1464" y="532.4" textLength="12.2" clip-path="url(#terminal-1086195030-line-21)">
</text><text class="terminal-1086195030-r1" x="1464" y="556.8" textLength="12.2" clip-path="url(#terminal-1086195030-line-22)">
</text><text class="terminal-1086195030-r1" x="1464" y="581.2" textLength="12.2" clip-path="url(#terminal-1086195030-line-23)">
</text><text class="terminal-1086195030-r1" x="1464" y="605.6" textLength="12.2" clip-path="url(#terminal-1086195030-line-24)">
</text><text class="terminal-1086195030-r1" x="1464" y="630" textLength="12.2" clip-path="url(#terminal-1086195030-line-25)">
</text><text class="terminal-1086195030-r1" x="1464" y="654.4" textLength="12.2" clip-path="url(#terminal-1086195030-line-26)">
</text><text class="terminal-1086195030-r1" x="1464" y="678.8" textLength="12.2" clip-path="url(#terminal-1086195030-line-27)">
</text><text class="terminal-1086195030-r1" x="1464" y="703.2" textLength="12.2" clip-path="url(#terminal-1086195030-line-28)">
</text><text class="terminal-1086195030-r1" x="1464" y="727.6" textLength="12.2" clip-path="url(#terminal-1086195030-line-29)">
</text><text class="terminal-1086195030-r1" x="1464" y="752" textLength="12.2" clip-path="url(#terminal-1086195030-line-30)">
</text><text class="terminal-1086195030-r1" x="1464" y="776.4" textLength="12.2" clip-path="url(#terminal-1086195030-line-31)">
</text><text class="terminal-1086195030-r1" x="1464" y="800.8" textLength="12.2" clip-path="url(#terminal-1086195030-line-32)">
</text><text class="terminal-1086195030-r1" x="1464" y="825.2" textLength="12.2" clip-path="url(#terminal-1086195030-line-33)">
</text><text class="terminal-1086195030-r1" x="1464" y="849.6" textLength="12.2" clip-path="url(#terminal-1086195030-line-34)">
</text><text class="terminal-1086195030-r1" x="1464" y="874" textLength="12.2" clip-path="url(#terminal-1086195030-line-35)">
</text><text class="terminal-1086195030-r1" x="1464" y="898.4" textLength="12.2" clip-path="url(#terminal-1086195030-line-36)">
</text><text class="terminal-1086195030-r1" x="1464" y="922.8" textLength="12.2" clip-path="url(#terminal-1086195030-line-37)">
</text><text class="terminal-1086195030-r1" x="1464" y="947.2" textLength="12.2" clip-path="url(#terminal-1086195030-line-38)">
</text><text class="terminal-1086195030-r13" x="0" y="971.6" textLength="36.6" clip-path="url(#terminal-1086195030-line-39)">&#160;q&#160;</text><text class="terminal-1086195030-r3" x="36.6" y="971.6" textLength="61" clip-path="url(#terminal-1086195030-line-39)">Quit&#160;</text><text class="terminal-1086195030-r13" x="97.6" y="971.6" textLength="48.8" clip-path="url(#terminal-1086195030-line-39)">&#160;f5&#160;</text><text class="terminal-1086195030-r3" x="146.4" y="971.6" textLength="61" clip-path="url(#terminal-1086195030-line-39)">Sync&#160;</text><text class="terminal-1086195030-r13" x="207.4" y="971.6" textLength="36.6" clip-path="url(#terminal-1086195030-line-39)">&#160;h&#160;</text><text class="terminal-1086195030-r3" x="244" y="971.6" textLength="61" clip-path="url(#terminal-1086195030-line-39)">Home&#160;</text><text class="terminal-1086195030-r13" x="305" y="971.6" textLength="61" clip-path="url(#terminal-1086195030-line-39)">&#160;esc&#160;</text><text class="terminal-1086195030-r3" x="366" y="971.6" textLength="61" clip-path="url(#terminal-1086195030-line-39)">Back&#160;</text><text class="terminal-1086195030-r13" x="427" y="971.6" textLength="36.6" clip-path="url(#terminal-1086195030-line-39)">&#160;e&#160;</text><text class="terminal-1086195030-r3" x="463.6" y="971.6" textLength="61" clip-path="url(#terminal-1086195030-line-39)">Edit&#160;</text><text class="terminal-1086195030-r13" x="524.6" y="971.6" textLength="36.6" clip-path="url(#terminal-1086195030-line-39)">&#160;a&#160;</text><text class="terminal-1086195030-r3" x="561.2" y="971.6" textLength="85.4" clip-path="url(#terminal-1086195030-line-39)">Append&#160;</text><text class="terminal-1086195030-r13" x="646.6" y="971.6" textLength="36.6" clip-path="url(#terminal-1086195030-line-39)">&#160;z&#160;</text><text class="terminal-1086195030-r3" x="683.2" y="971.6" textLength="146.4" clip-path="url(#terminal-1086195030-line-39)">Link&#160;parent&#160;</text><text class="terminal-1086195030-r13" x="829.6" y="971.6" textLength="36.6" clip-path="url(#terminal-1086195030-line-39)">&#160;d&#160;</text><text class="terminal-1086195030-r3" x="866.2" y="971.6" textLength="85.4" clip-path="url(#terminal-1086195030-line-39)">Delete&#160;</text><text class="terminal-1086195030-r13" x="951.6" y="971.6" textLength="36.6" clip-path="url(#terminal-1086195030-line-39)">&#160;y&#160;</text><text class="terminal-1086195030-r3" x="988.2" y="971.6" textLength="122" clip-path="url(#terminal-1086195030-line-39)">Copy&#160;view&#160;</text><text class="terminal-1086195030-r13" x="1110.2" y="971.6" textLength="36.6" clip-path="url(#terminal-1086195030-line-39)">&#160;s&#160;</text><text class="terminal-1086195030-r3" x="1146.8" y="971.6" textLength="85.4" clip-path="url(#terminal-1086195030-line-39)">Search&#160;</text><text class="terminal-1086195030-r13" x="1232.2" y="971.6" textLength="48.8" clip-path="url(#terminal-1086195030-line-39)">&#160;f2&#160;</text><text class="terminal-1086195030-r3" x="1281" y="971.6" textLength="36.6" clip-path="url(#terminal-1086195030-line-39)">AI&#160;</text>
    </g>
    </g>
</svg>
