<svg class="rich-terminal" viewBox="0 0 1482 1026.0" xmlns="http://www.w3.org/2000/svg">
    <!-- Generated with Rich https://www.textualize.io -->
    <style>

    @font-face {
        font-family: "Fira Code";
        src: local("FiraCode-Regular"),
                url("https://cdnjs.cloudflare.com/ajax/libs/firacode/6.2.0/woff2/FiraCode-Regular.woff2") format("woff2"),
                url("https://cdnjs.cloudflare.com/ajax/libs/firacode/6.2.0/woff/FiraCode-Regular.woff") format("woff");
        font-style: normal;
        font-weight: 400;
    }
    @font-face {
        font-family: "Fira Code";
        src: local("FiraCode-Bold"),
                url("https://cdnjs.cloudflare.com/ajax/libs/firacode/6.2.0/woff2/FiraCode-Bold.woff2") format("woff2"),
                url("https://cdnjs.cloudflare.com/ajax/libs/firacode/6.2.0/woff/FiraCode-Bold.woff") format("woff");
        font-style: bold;
        font-weight: 700;
    }

    .terminal-952750701-matrix {
        font-family: Fira Code, monospace;
        font-size: 20px;
        line-height: 24.4px;
        font-variant-east-asian: full-width;
    }

    .terminal-952750701-title {
        font-size: 18px;
        font-weight: bold;
        font-family: arial;
    }

    .terminal-952750701-r1 { fill: #c5c8c6 }
.terminal-952750701-r2 { fill: #242f38;font-weight: bold }
.terminal-952750701-r3 { fill: #e0e0e0 }
.terminal-952750701-r4 { fill: #4f4f4f }
.terminal-952750701-r5 { fill: #999999 }
.terminal-952750701-r6 { fill: #7ab8d4 }
.terminal-952750701-r7 { fill: #f0ead0 }
.terminal-952750701-r8 { fill: #f0ead0;font-weight: bold }
.terminal-952750701-r9 { fill: #e0e0e0;font-weight: bold }
.terminal-952750701-r10 { fill: #7ec87f }
.terminal-952750701-r11 { fill: #7a3030 }
.terminal-952750701-r12 { fill: #663322;font-weight: bold }
.terminal-952750701-r13 { fill: #e07060 }
.terminal-952750701-r14 { fill: #ffa62b;font-weight: bold }
.terminal-952750701-r15 { fill: #495259 }
    </style>

    <defs>
    <clipPath id="terminal-952750701-clip-terminal">
      <rect x="0" y="0" width="1463.0" height="975.0" />
    </clipPath>
    <clipPath id="terminal-952750701-line-0">
    <rect x="0" y="1.5" width="1464" height="24.65"/>
            </clipPath>
<clipPath id="terminal-952750701-line-1">
    <rect x="0" y="25.9" width="1464" height="24.65"/>
            </clipPath>
<clipPath id="terminal-952750701-line-2">
    <rect x="0" y="50.3" width="1464" height="24.65"/>
            </clipPath>
<clipPath id="terminal-952750701-line-3">
    <rect x="0" y="74.7" width="1464" height="24.65"/>
            </clipPath>
<clipPath id="terminal-952750701-line-4">
    <rect x="0" y="99.1" width="1464" height="24.65"/>
            </clipPath>
<clipPath id="terminal-952750701-line-5">
    <rect x="0" y="123.5" width="1464" height="24.65"/>
            </clipPath>
<clipPath id="terminal-952750701-line-6">
    <rect x="0" y="147.9" width="1464" height="24.65"/>
            </clipPath>
<clipPath id="terminal-952750701-line-7">
    <rect x="0" y="172.3" width="1464" height="24.65"/>
            </clipPath>
<clipPath id="terminal-952750701-line-8">
    <rect x="0" y="196.7" width="1464" height="24.65"/>
            </clipPath>
<clipPath id="terminal-952750701-line-9">
    <rect x="0" y="221.1" width="1464" height="24.65"/>
            </clipPath>
<clipPath id="terminal-952750701-line-10">
    <rect x="0" y="245.5" width="1464" height="24.65"/>
            </clipPath>
<clipPath id="terminal-952750701-line-11">
    <rect x="0" y="269.9" width="1464" height="24.65"/>
            </clipPath>
<clipPath id="terminal-952750701-line-12">
    <rect x="0" y="294.3" width="1464" height="24.65"/>
            </clipPath>
<clipPath id="terminal-952750701-line-13">
    <rect x="0" y="318.7" width="1464" height="24.65"/>
            </clipPath>
<clipPath id="terminal-952750701-line-14">
    <rect x="0" y="343.1" width="1464" height="24.65"/>
            </clipPath>
<clipPath id="terminal-952750701-line-15">
    <rect x="0" y="367.5" width="1464" height="24.65"/>
            </clipPath>
<clipPath id="terminal-952750701-line-16">
    <rect x="0" y="391.9" width="1464" height="24.65"/>
            </clipPath>
<clipPath id="terminal-952750701-line-17">
    <rect x="0" y="416.3" width="1464" height="24.65"/>
            </clipPath>
<clipPath id="terminal-952750701-line-18">
    <rect x="0" y="440.7" width="1464" height="24.65"/>
            </clipPath>
<clipPath id="terminal-952750701-line-19">
    <rect x="0" y="465.1" width="1464" height="24.65"/>
            </clipPath>
<clipPath id="terminal-952750701-line-20">
    <rect x="0" y="489.5" width="1464" height="24.65"/>
            </clipPath>
<clipPath id="terminal-952750701-line-21">
    <rect x="0" y="513.9" width="1464" height="24.65"/>
            </clipPath>
<clipPath id="terminal-952750701-line-22">
    <rect x="0" y="538.3" width="1464" height="24.65"/>
            </clipPath>
<clipPath id="terminal-952750701-line-23">
    <rect x="0" y="562.7" width="1464" height="24.65"/>
            </clipPath>
<clipPath id="terminal-952750701-line-24">
    <rect x="0" y="587.1" width="1464" height="24.65"/>
            </clipPath>
<clipPath id="terminal-952750701-line-25">
    <rect x="0" y="611.5" width="1464" height="24.65"/>
            </clipPath>
<clipPath id="terminal-952750701-line-26">
    <rect x="0" y="635.9" width="1464" height="24.65"/>
            </clipPath>
<clipPath id="terminal-952750701-line-27">
    <rect x="0" y="660.3" width="1464" height="24.65"/>
            </clipPath>
<clipPath id="terminal-952750701-line-28">
    <rect x="0" y="684.7" width="1464" height="24.65"/>
            </clipPath>
<clipPath id="terminal-952750701-line-29">
    <rect x="0" y="709.1" width="1464" height="24.65"/>
            </clipPath>
<clipPath id="terminal-952750701-line-30">
    <rect x="0" y="733.5" width="1464" height="24.65"/>
            </clipPath>
<clipPath id="terminal-952750701-line-31">
    <rect x="0" y="757.9" width="1464" height="24.65"/>
            </clipPath>
<clipPath id="terminal-952750701-line-32">
    <rect x="0" y="782.3" width="1464" height="24.65"/>
            </clipPath>
<clipPath id="terminal-952750701-line-33">
    <rect x="0" y="806.7" width="1464" height="24.65"/>
            </clipPath>
<clipPath id="terminal-952750701-line-34">
    <rect x="0" y="831.1" width="1464" height="24.65"/>
            </clipPath>
<clipPath id="terminal-952750701-line-35">
    <rect x="0" y="855.5" width="1464" height="24.65"/>
            </clipPath>
<clipPath id="terminal-952750701-line-36">
    <rect x="0" y="879.9" width="1464" height="24.65"/>
            </clipPath>
<clipPath id="terminal-952750701-line-37">
    <rect x="0" y="904.3" width="1464" height="24.65"/>
            </clipPath>
<clipPath id="terminal-952750701-line-38">
    <rect x="0" y="928.7" width="1464" height="24.65"/>
            </clipPath>
    </defs>

    <rect fill="#292929" stroke="rgba(255,255,255,0.35)" stroke-width="1" x="1" y="1" width="1480" height="1024" rx="8"/><text class="terminal-952750701-title" fill="#c5c8c6" text-anchor="middle" x="740" y="27">pfq</text>
            <g transform="translate(26,22)">
            <circle cx="0" cy="0" r="7" fill="#ff5f57"/>
            <circle cx="22" cy="0" r="7" fill="#febc2e"/>
            <circle cx="44" cy="0" r="7" fill="#28c840"/>
            </g>
        
    <g transform="translate(9, 41)" clip-path="url(#terminal-952750701-clip-terminal)">
    <rect fill="#242f38" x="0" y="1.5" width="12.2" height="24.65" shape-rendering="crispEdges"/><rect fill="#e0e0e0" x="12.2" y="1.5" width="85.4" height="24.65" shape-rendering="crispEdges"/><rect fill="#242f38" x="97.6" y="1.5" width="244" height="24.65" shape-rendering="crispEdges"/><rect fill="#242f38" x="341.6" y="1.5" width="1110.2" height="24.65" shape-rendering="crispEdges"/><rect fill="#242f38" x="1451.8" y="1.5" width="12.2" height="24.65" shape-rendering="crispEdges"/><rect fill="#121212" x="0" y="25.9" width="1464" height="24.65" shape-rendering="crispEdges"/><rect fill="#121212" x="0" y="50.3" width="36.6" height="24.65" shape-rendering="crispEdges"/><rect fill="#121212" x="36.6" y="50.3" width="146.4" height="24.65" shape-rendering="crispEdges"/><rect fill="#121212" x="183" y="50.3" width="36.6" height="24.65" shape-rendering="crispEdges"/><rect fill="#121212" x="219.6" y="50.3" width="829.6" height="24.65" shape-rendering="crispEdges"/><rect fill="#121212" x="1049.2" y="50.3" width="24.4" height="24.65" shape-rendering="crispEdges"/><rect fill="#121212" x="1073.6" y="50.3" width="378.2" height="24.65" shape-rendering="crispEdges"/><rect fill="#121212" x="1451.8" y="50.3" width="12.2" height="24.65" shape-rendering="crispEdges"/><rect fill="#121212" x="0" y="74.7" width="36.6" height="24.65" shape-rendering="crispEdges"/><rect fill="#121212" x="36.6" y="74.7" width="146.4" height="24.65" shape-rendering="crispEdges"/><rect fill="#121212" x="183" y="74.7" width="36.6" height="24.65" shape-rendering="crispEdges"/><rect fill="#121212" x="219.6" y="74.7" width="12.2" height="24.65" shape-rendering="crispEdges"/><rect fill="#121212" x="231.8" y="74.7" width="48.8" height="24.65" shape-rendering="crispEdges"/><rect fill="#121212" x="280.6" y="74.7" width="768.6" height="24.65" shape-rendering="crispEdges"/><rect fill="#121212" x="1049.2" y="74.7" width="24.4" height="24.65" shape-rendering="crispEdges"/><rect fill="#121212" x="1073.6" y="74.7" width="378.2" height="24.65" shape-rendering="crispEdges"/><rect fill="#121212" x="1451.8" y="74.7" width="12.2" height="24.65" shape-rendering="crispEdges"/><rect fill="#121212" x="0" y="99.1" width="36.6" height="24.65" shape-rendering="crispEdges"/><rect fill="#121212" x="36.6" y="99.1" width="12.2" height="24.65" shape-rendering="crispEdges"/><rect fill="#121212" x="48.8" y="99.1" width="97.6" height="24.65" shape-rendering="crispEdges"/><rect fill="#121212" x="146.4" y="99.1" width="36.6" height="24.65" shape-rendering="crispEdges"/><rect fill="#121212" x="183" y="99.1" width="36.6" height="24.65" shape-rendering="crispEdges"/><rect fill="#121212" x="219.6" y="99.1" width="829.6" height="24.65" shape-rendering="crispEdges"/><rect fill="#121212" x="1049.2" y="99.1" width="24.4" height="24.65" shape-rendering="crispEdges"/><rect fill="#121212" x="1073.6" y="99.1" width="378.2" height="24.65" shape-rendering="crispEdges"/><rect fill="#121212" x="1451.8" y="99.1" width="12.2" height="24.65" shape-rendering="crispEdges"/><rect fill="#121212" x="0" y="123.5" width="36.6" height="24.65" shape-rendering="crispEdges"/><rect fill="#2e2600" x="36.6" y="123.5" width="12.2" height="24.65" shape-rendering="crispEdges"/><rect fill="#2e2600" x="48.8" y="123.5" width="24.4" height="24.65" shape-rendering="crispEdges"/><rect fill="#7a3a1a" x="73.2" y="123.5" width="48.8" height="24.65" shape-rendering="crispEdges"/><rect fill="#2e2600" x="122" y="123.5" width="61" height="24.65" shape-rendering="crispEdges"/><rect fill="#121212" x="183" y="123.5" width="36.6" height="24.65" shape-rendering="crispEdges"/><rect fill="#121212" x="219.6" y="123.5" width="12.2" height="24.65" shape-rendering="crispEdges"/><rect fill="#121212" x="231.8" y="123.5" width="183" height="24.65" shape-rendering="crispEdges"/><rect fill="#121212" x="414.8" y="123.5" width="634.4" height="24.65" shape-rendering="crispEdges"/><rect fill="#121212" x="1049.2" y="123.5" width="24.4" height="24.65" shape-rendering="crispEdges"/><rect fill="#121212" x="1073.6" y="123.5" width="378.2" height="24.65" shape-rendering="crispEdges"/><rect fill="#121212" x="1451.8" y="123.5" width="12.2" height="24.65" shape-rendering="crispEdges"/><rect fill="#121212" x="0" y="147.9" width="36.6" height="24.65" shape-rendering="crispEdges"/><rect fill="#121212" x="36.6" y="147.9" width="12.2" height="24.65" shape-rendering="crispEdges"/><rect fill="#121212" x="48.8" y="147.9" width="73.2" height="24.65" shape-rendering="crispEdges"/><rect fill="#121212" x="122" y="147.9" width="61" height="24.65" shape-rendering="crispEdges"/><rect fill="#121212" x="183" y="147.9" width="36.6" height="24.65" shape-rendering="crispEdges"/><rect fill="#121212" x="219.6" y="147.9" width="829.6" height="24.65" shape-rendering="crispEdges"/><rect fill="#121212" x="1049.2" y="147.9" width="24.4" height="24.65" shape-rendering="crispEdges"/><rect fill="#121212" x="1073.6" y="147.9" width="378.2" height="24.65" shape-rendering="crispEdges"/><rect fill="#121212" x="1451.8" y="147.9" width="12.2" height="24.65" shape-rendering="crispEdges"/><rect fill="#121212" x="0" y="172.3" width="1464" height="24.65" shape-rendering="crispEdges"/><rect fill="#121212" x="0" y="196.7" width="1464" height="24.65" shape-rendering="crispEdges"/><rect fill="#121212" x="0" y="221.1" width="1464" height="24.65" shape-rendering="crispEdges"/><rect fill="#121212" x="0" y="245.5" width="1464" height="24.65" shape-rendering="crispEdges"/><rect fill="#121212" x="0" y="269.9" width="1464" height="24.65" shape-rendering="crispEdges"/><rect fill="#121212" x="0" y="294.3" width="1464" height="24.65" shape-rendering="crispEdges"/><rect fill="#121212" x="0" y="318.7" width="1464" height="24.65" shape-rendering="crispEdges"/><rect fill="#121212" x="0" y="343.1" width="1464" height="24.65" shape-rendering="crispEdges"/><rect fill="#121212" x="0" y="367.5" width="1464" height="24.65" shape-rendering="crispEdges"/><rect fill="#121212" x="0" y="391.9" width="1464" height="24.65" shape-rendering="crispEdges"/><rect fill="#121212" x="0" y="416.3" width="1464" height="24.65" shape-rendering="crispEdges"/><rect fill="#121212" x="0" y="440.7" width="1464" height="24.65" shape-rendering="crispEdges"/><rect fill="#121212" x="0" y="465.1" width="1464" height="24.65" shape-rendering="crispEdges"/><rect fill="#121212" x="0" y="489.5" width="1464" height="24.65" shape-rendering="crispEdges"/><rect fill="#121212" x="0" y="513.9" width="1464" height="24.65" shape-rendering="crispEdges"/><rect fill="#121212" x="0" y="538.3" width="1464" height="24.65" shape-rendering="crispEdges"/><rect fill="#121212" x="0" y="562.7" width="1464" height="24.65" shape-rendering="crispEdges"/><rect fill="#121212" x="0" y="587.1" width="1464" height="24.65" shape-rendering="crispEdges"/><rect fill="#121212" x="0" y="611.5" width="1464" height="24.65" shape-rendering="crispEdges"/><rect fill="#121212" x="0" y="635.9" width="48.8" height="24.65" shape-rendering="crispEdges"/><rect fill="#1a1a1e" x="48.8" y="635.9" width="12.2" height="24.65" shape-rendering="crispEdges"/><rect fill="#1a1a1e" x="61" y="635.9" width="1000.4" height="24.65" shape-rendering="crispEdges"/><rect fill="#1a1a1e" x="1061.4" y="635.9" width="12.2" height="24.65" shape-rendering="crispEdges"/><rect fill="#121212" x="1073.6" y="635.9" width="390.4" height="24.65" shape-rendering="crispEdges"/><rect fill="#121212" x="0" y="660.3" width="48.8" height="24.65" shape-rendering="crispEdges"/><rect fill="#1a1a1e" x="48.8" y="660.3" width="12.2" height="24.65" shape-rendering="crispEdges"/><rect fill="#1a1a1e" x="61" y="660.3" width="1000.4" height="24.65" shape-rendering="crispEdges"/><rect fill="#1a1a1e" x="1061.4" y="660.3" width="12.2" height="24.65" shape-rendering="crispEdges"/><rect fill="#121212" x="1073.6" y="660.3" width="390.4" height="24.65" shape-rendering="crispEdges"/><rect fill="#121212" x="0" y="684.7" width="48.8" height="24.65" shape-rendering="crispEdges"/><rect fill="#1a1a1e" x="48.8" y="684.7" width="12.2" height="24.65" shape-rendering="crispEdges"/><rect fill="#1a1a1e" x="61" y="684.7" width="24.4" height="24.65" shape-rendering="crispEdges"/><rect fill="#1a1a1e" x="85.4" y="684.7" width="12.2" height="24.65" shape-rendering="crispEdges"/><rect fill="#1a1a1e" x="97.6" y="684.7" width="12.2" height="24.65" shape-rendering="crispEdges"/><rect fill="#1a1a1e" x="109.8" y="684.7" width="12.2" height="24.65" shape-rendering="crispEdges"/><rect fill="#1a1a1e" x="122" y="684.7" width="12.2" height="24.65" shape-rendering="crispEdges"/><rect fill="#1a1a1e" x="134.2" y="684.7" width="12.2" height="24.65" shape-rendering="crispEdges"/><rect fill="#1a1a1e" x="146.4" y="684.7" width="12.2" height="24.65" shape-rendering="crispEdges"/><rect fill="#1a1a1e" x="158.6" y="684.7" width="24.4" height="24.65" shape-rendering="crispEdges"/><rect fill="#1a1a1e" x="183" y="684.7" width="817.4" height="24.65" shape-rendering="crispEdges"/><rect fill="#1a1a1e" x="1000.4" y="684.7" width="36.6" height="24.65" shape-rendering="crispEdges"/><rect fill="#1a1a1e" x="1037" y="684.7" width="24.4" height="24.65" shape-rendering="crispEdges"/><rect fill="#1a1a1e" x="1061.4" y="684.7" width="12.2" height="24.65" shape-rendering="crispEdges"/><rect fill="#121212" x="1073.6" y="684.7" width="390.4" height="24.65" shape-rendering="crispEdges"/><rect fill="#121212" x="0" y="709.1" width="48.8" height="24.65" shape-rendering="crispEdges"/><rect fill="#1a1a1e" x="48.8" y="709.1" width="12.2" height="24.65" shape-rendering="crispEdges"/><rect fill="#1a1a1e" x="61" y="709.1" width="24.4" height="24.65" shape-rendering="crispEdges"/><rect fill="#1a1a1e" x="85.4" y="709.1" width="134.2" height="24.65" shape-rendering="crispEdges"/><rect fill="#1a1a1e" x="219.6" y="709.1" width="817.4" height="24.65" shape-rendering="crispEdges"/><rect fill="#1a1a1e" x="1037" y="709.1" width="24.4" height="24.65" shape-rendering="crispEdges"/><rect fill="#1a1a1e" x="1061.4" y="709.1" width="12.2" height="24.65" shape-rendering="crispEdges"/><rect fill="#121212" x="1073.6" y="709.1" width="390.4" height="24.65" shape-rendering="crispEdges"/><rect fill="#121212" x="0" y="733.5" width="48.8" height="24.65" shape-rendering="crispEdges"/><rect fill="#1a1a1e" x="48.8" y="733.5" width="12.2" height="24.65" shape-rendering="crispEdges"/><rect fill="#1a1a1e" x="61" y="733.5" width="24.4" height="24.65" shape-rendering="crispEdges"/><rect fill="#1a1a1e" x="85.4" y="733.5" width="12.2" height="24.65" shape-rendering="crispEdges"/><rect fill="#1a1a1e" x="97.6" y="733.5" width="12.2" height="24.65" shape-rendering="crispEdges"/><rect fill="#1a1a1e" x="109.8" y="733.5" width="12.2" height="24.65" shape-rendering="crispEdges"/><rect fill="#1a1a1e" x="122" y="733.5" width="12.2" height="24.65" shape-rendering="crispEdges"/><rect fill="#1a1a1e" x="134.2" y="733.5" width="12.2" height="24.65" shape-rendering="crispEdges"/><rect fill="#1a1a1e" x="146.4" y="733.5" width="12.2" height="24.65" shape-rendering="crispEdges"/><rect fill="#1a1a1e" x="158.6" y="733.5" width="24.4" height="24.65" shape-rendering="crispEdges"/><rect fill="#1a1a1e" x="183" y="733.5" width="439.2" height="24.65" shape-rendering="crispEdges"/><rect fill="#1a1a1e" x="622.2" y="733.5" width="414.8" height="24.65" shape-rendering="crispEdges"/><rect fill="#1a1a1e" x="1037" y="733.5" width="24.4" height="24.65" shape-rendering="crispEdges"/><rect fill="#1a1a1e" x="1061.4" y="733.5" width="12.2" height="24.65" shape-rendering="crispEdges"/><rect fill="#121212" x="1073.6" y="733.5" width="390.4" height="24.65" shape-rendering="crispEdges"/><rect fill="#121212" x="0" y="757.9" width="48.8" height="24.65" shape-rendering="crispEdges"/><rect fill="#1a1a1e" x="48.8" y="757.9" width="12.2" height="24.65" shape-rendering="crispEdges"/><rect fill="#1a1a1e" x="61" y="757.9" width="24.4" height="24.65" shape-rendering="crispEdges"/><rect fill="#1a1a1e" x="85.4" y="757.9" width="12.2" height="24.65" shape-rendering="crispEdges"/><rect fill="#1a1a1e" x="97.6" y="757.9" width="12.2" height="24.65" shape-rendering="crispEdges"/><rect fill="#1a1a1e" x="109.8" y="757.9" width="12.2" height="24.65" shape-rendering="crispEdges"/><rect fill="#1a1a1e" x="122" y="757.9" width="12.2" height="24.65" shape-rendering="crispEdges"/><rect fill="#1a1a1e" x="134.2" y="757.9" width="12.2" height="24.65" shape-rendering="crispEdges"/><rect fill="#1a1a1e" x="146.4" y="757.9" width="12.2" height="24.65" shape-rendering="crispEdges"/><rect fill="#1a1a1e" x="158.6" y="757.9" width="24.4" height="24.65" shape-rendering="crispEdges"/><rect fill="#1a1a1e" x="183" y="757.9" width="854" height="24.65" shape-rendering="crispEdges"/><rect fill="#1a1a1e" x="1037" y="757.9" width="24.4" height="24.65" shape-rendering="crispEdges"/><rect fill="#1a1a1e" x="1061.4" y="757.9" width="12.2" height="24.65" shape-rendering="crispEdges"/><rect fill="#121212" x="1073.6" y="757.9" width="390.4" height="24.65" shape-rendering="crispEdges"/><rect fill="#121212" x="0" y="782.3" width="48.8" height="24.65" shape-rendering="crispEdges"/><rect fill="#1a1a1e" x="48.8" y="782.3" width="12.2" height="24.65" shape-rendering="crispEdges"/><rect fill="#1a1a1e" x="61" y="782.3" width="24.4" height="24.65" shape-rendering="crispEdges"/><rect fill="#1a1a1e" x="85.4" y="782.3" width="12.2" height="24.65" shape-rendering="crispEdges"/><rect fill="#1a1a1e" x="97.6" y="782.3" width="12.2" height="24.65" shape-rendering="crispEdges"/><rect fill="#1a1a1e" x="109.8" y="782.3" width="12.2" height="24.65" shape-rendering="crispEdges"/><rect fill="#1a1a1e" x="122" y="782.3" width="12.2" height="24.65" shape-rendering="crispEdges"/><rect fill="#1a1a1e" x="134.2" y="782.3" width="12.2" height="24.65" shape-rendering="crispEdges"/><rect fill="#1a1a1e" x="146.4" y="782.3" width="12.2" height="24.65" shape-rendering="crispEdges"/><rect fill="#1a1a1e" x="158.6" y="782.3" width="24.4" height="24.65" shape-rendering="crispEdges"/><rect fill="#1a1a1e" x="183" y="782.3" width="597.8" height="24.65" shape-rendering="crispEdges"/><rect fill="#1a1a1e" x="780.8" y="782.3" width="256.2" height="24.65" shape-rendering="crispEdges"/><rect fill="#1a1a1e" x="1037" y="782.3" width="24.4" height="24.65" shape-rendering="crispEdges"/><rect fill="#1a1a1e" x="1061.4" y="782.3" width="12.2" height="24.65" shape-rendering="crispEdges"/><rect fill="#121212" x="1073.6" y="782.3" width="390.4" height="24.65" shape-rendering="crispEdges"/><rect fill="#121212" x="0" y="806.7" width="48.8" height="24.65" shape-rendering="crispEdges"/><rect fill="#1a1a1e" x="48.8" y="806.7" width="12.2" height="24.65" shape-rendering="crispEdges"/><rect fill="#1a1a1e" x="61" y="806.7" width="24.4" height="24.65" shape-rendering="crispEdges"/><rect fill="#1a1a1e" x="85.4" y="806.7" width="12.2" height="24.65" shape-rendering="crispEdges"/><rect fill="#1a1a1e" x="97.6" y="806.7" width="12.2" height="24.65" shape-rendering="crispEdges"/><rect fill="#1a1a1e" x="109.8" y="806.7" width="12.2" height="24.65" shape-rendering="crispEdges"/><rect fill="#1a1a1e" x="122" y="806.7" width="12.2" height="24.65" shape-rendering="crispEdges"/><rect fill="#1a1a1e" x="134.2" y="806.7" width="12.2" height="24.65" shape-rendering="crispEdges"/><rect fill="#1a1a1e" x="146.4" y="806.7" width="12.2" height="24.65" shape-rendering="crispEdges"/><rect fill="#1a1a1e" x="158.6" y="806.7" width="24.4" height="24.65" shape-rendering="crispEdges"/><rect fill="#1a1a1e" x="183" y="806.7" width="451.4" height="24.65" shape-rendering="crispEdges"/><rect fill="#1a1a1e" x="634.4" y="806.7" width="402.6" height="24.65" shape-rendering="crispEdges"/><rect fill="#1a1a1e" x="1037" y="806.7" width="24.4" height="24.65" shape-rendering="crispEdges"/><rect fill="#1a1a1e" x="1061.4" y="806.7" width="12.2" height="24.65" shape-rendering="crispEdges"/><rect fill="#121212" x="1073.6" y="806.7" width="390.4" height="24.65" shape-rendering="crispEdges"/><rect fill="#121212" x="0" y="831.1" width="48.8" height="24.65" shape-rendering="crispEdges"/><rect fill="#1a1a1e" x="48.8" y="831.1" width="12.2" height="24.65" shape-rendering="crispEdges"/><rect fill="#1a1a1e" x="61" y="831.1" width="24.4" height="24.65" shape-rendering="crispEdges"/><rect fill="#1a1a1e" x="85.4" y="831.1" width="12.2" height="24.65" shape-rendering="crispEdges"/><rect fill="#1a1a1e" x="97.6" y="831.1" width="12.2" height="24.65" shape-rendering="crispEdges"/><rect fill="#1a1a1e" x="109.8" y="831.1" width="12.2" height="24.65" shape-rendering="crispEdges"/><rect fill="#1a1a1e" x="122" y="831.1" width="12.2" height="24.65" shape-rendering="crispEdges"/><rect fill="#1a1a1e" x="134.2" y="831.1" width="12.2" height="24.65" shape-rendering="crispEdges"/><rect fill="#1a1a1e" x="146.4" y="831.1" width="12.2" height="24.65" shape-rendering="crispEdges"/><rect fill="#1a1a1e" x="158.6" y="831.1" width="24.4" height="24.65" shape-rendering="crispEdges"/><rect fill="#1a1a1e" x="183" y="831.1" width="463.6" height="24.65" shape-rendering="crispEdges"/><rect fill="#1a1a1e" x="646.6" y="831.1" width="390.4" height="24.65" shape-rendering="crispEdges"/><rect fill="#1a1a1e" x="1037" y="831.1" width="24.4" height="24.65" shape-rendering="crispEdges"/><rect fill="#1a1a1e" x="1061.4" y="831.1" width="12.2" height="24.65" shape-rendering="crispEdges"/><rect fill="#121212" x="1073.6" y="831.1" width="390.4" height="24.65" shape-rendering="crispEdges"/><rect fill="#121212" x="0" y="855.5" width="48.8" height="24.65" shape-rendering="crispEdges"/><rect fill="#1a1a1e" x="48.8" y="855.5" width="12.2" height="24.65" shape-rendering="crispEdges"/><rect fill="#1a1a1e" x="61" y="855.5" width="24.4" height="24.65" shape-rendering="crispEdges"/><rect fill="#1a1a1e" x="85.4" y="855.5" width="0" height="24.65" shape-rendering="crispEdges"/><rect fill="#1a1a1e" x="85.4" y="855.5" width="951.6" height="24.65" shape-rendering="crispEdges"/><rect fill="#1a1a1e" x="1037" y="855.5" width="24.4" height="24.65" shape-rendering="crispEdges"/><rect fill="#1a1a1e" x="1061.4" y="855.5" width="12.2" height="24.65" shape-rendering="crispEdges"/><rect fill="#121212" x="1073.6" y="855.5" width="390.4" height="24.65" shape-rendering="crispEdges"/><rect fill="#121212" x="0" y="879.9" width="48.8" height="24.65" shape-rendering="crispEdges"/><rect fill="#1a1a1e" x="48.8" y="879.9" width="12.2" height="24.65" shape-rendering="crispEdges"/><rect fill="#1a1a1e" x="61" y="879.9" width="1000.4" height="24.65" shape-rendering="crispEdges"/><rect fill="#1a1a1e" x="1061.4" y="879.9" width="12.2" height="24.65" shape-rendering="crispEdges"/><rect fill="#121212" x="1073.6" y="879.9" width="390.4" height="24.65" shape-rendering="crispEdges"/><rect fill="#121212" x="0" y="904.3" width="48.8" height="24.65" shape-rendering="crispEdges"/><rect fill="#1a1a1e" x="48.8" y="904.3" width="12.2" height="24.65" shape-rendering="crispEdges"/><rect fill="#1a1a1e" x="61" y="904.3" width="1000.4" height="24.65" shape-rendering="crispEdges"/><rect fill="#1a1a1e" x="1061.4" y="904.3" width="12.2" height="24.65" shape-rendering="crispEdges"/><rect fill="#121212" x="1073.6" y="904.3" width="390.4" height="24.65" shape-rendering="crispEdges"/><rect fill="#121212" x="0" y="928.7" width="1464" height="24.65" shape-rendering="crispEdges"/><rect fill="#242f38" x="0" y="953.1" width="36.6" height="24.65" shape-rendering="crispEdges"/><rect fill="#242f38" x="36.6" y="953.1" width="61" height="24.65" shape-rendering="crispEdges"/><rect fill="#242f38" x="97.6" y="953.1" width="36.6" height="24.65" shape-rendering="crispEdges"/><rect fill="#242f38" x="134.2" y="953.1" width="61" height="24.65" shape-rendering="crispEdges"/><rect fill="#242f38" x="195.2" y="953.1" width="61" height="24.65" shape-rendering="crispEdges"/><rect fill="#242f38" x="256.2" y="953.1" width="61" height="24.65" shape-rendering="crispEdges"/><rect fill="#242f38" x="317.2" y="953.1" width="36.6" height="24.65" shape-rendering="crispEdges"/><rect fill="#242f38" x="353.8" y="953.1" width="61" height="24.65" shape-rendering="crispEdges"/><rect fill="#242f38" x="414.8" y="953.1" width="36.6" height="24.65" shape-rendering="crispEdges"/><rect fill="#242f38" x="451.4" y="953.1" width="85.4" height="24.65" shape-rendering="crispEdges"/><rect fill="#242f38" x="536.8" y="953.1" width="36.6" height="24.65" shape-rendering="crispEdges"/><rect fill="#242f38" x="573.4" y="953.1" width="146.4" height="24.65" shape-rendering="crispEdges"/><rect fill="#242f38" x="719.8" y="953.1" width="36.6" height="24.65" shape-rendering="crispEdges"/><rect fill="#242f38" x="756.4" y="953.1" width="85.4" height="24.65" shape-rendering="crispEdges"/><rect fill="#242f38" x="841.8" y="953.1" width="36.6" height="24.65" shape-rendering="crispEdges"/><rect fill="#242f38" x="878.4" y="953.1" width="146.4" height="24.65" shape-rendering="crispEdges"/><rect fill="#242f38" x="1024.8" y="953.1" width="36.6" height="24.65" shape-rendering="crispEdges"/><rect fill="#242f38" x="1061.4" y="953.1" width="122" height="24.65" shape-rendering="crispEdges"/><rect fill="#242f38" x="1183.4" y="953.1" width="48.8" height="24.65" shape-rendering="crispEdges"/><rect fill="#242f38" x="1232.2" y="953.1" width="36.6" height="24.65" shape-rendering="crispEdges"/><rect fill="#242f38" x="1268.8" y="953.1" width="48.8" height="24.65" shape-rendering="crispEdges"/><rect fill="#242f38" x="1317.6" y="953.1" width="12.2" height="24.65" shape-rendering="crispEdges"/><rect fill="#242f38" x="1329.8" y="953.1" width="24.4" height="24.65" shape-rendering="crispEdges"/><rect fill="#242f38" x="1354.2" y="953.1" width="97.6" height="24.65" shape-rendering="crispEdges"/><rect fill="#242f38" x="1451.8" y="953.1" width="12.2" height="24.65" shape-rendering="crispEdges"/>
    <g class="terminal-952750701-matrix">
    <text class="terminal-952750701-r2" x="12.2" y="20" textLength="85.4" clip-path="url(#terminal-952750701-line-0)">&#160;p&#160;f&#160;q&#160;</text><text class="terminal-952750701-r3" x="97.6" y="20" textLength="244" clip-path="url(#terminal-952750701-line-0)">&#160;&#160;vault:&#160;test_vault/</text><text class="terminal-952750701-r1" x="1464" y="20" textLength="12.2" clip-path="url(#terminal-952750701-line-0)">
</text><text class="terminal-952750701-r1" x="1464" y="44.4" textLength="12.2" clip-path="url(#terminal-952750701-line-1)">
</text><text class="terminal-952750701-r4" x="36.6" y="68.8" textLength="146.4" clip-path="url(#terminal-952750701-line-2)">&#160;status&#160;&#160;&#160;&#160;&#160;</text><text class="terminal-952750701-r4" x="219.6" y="68.8" textLength="829.6" clip-path="url(#terminal-952750701-line-2)">&#160;description&#160;&#160;&#160;&#160;&#160;&#160;&#160;&#160;&#160;&#160;&#160;&#160;&#160;&#160;&#160;&#160;&#160;&#160;&#160;&#160;&#160;&#160;&#160;&#160;&#160;&#160;&#160;&#160;&#160;&#160;&#160;&#160;&#160;&#160;&#160;&#160;&#160;&#160;&#160;&#160;&#160;&#160;&#160;&#160;&#160;&#160;&#160;&#160;&#160;&#160;&#160;&#160;&#160;&#160;&#160;&#160;</text><text class="terminal-952750701-r1" x="1464" y="68.8" textLength="12.2" clip-path="url(#terminal-952750701-line-2)">
</text><text class="terminal-952750701-r3" x="183" y="93.2" textLength="36.6" clip-path="url(#terminal-952750701-line-3)">&#160;─&#160;</text><text class="terminal-952750701-r5" x="231.8" y="93.2" textLength="48.8" clip-path="url(#terminal-952750701-line-3)">root</text><text class="terminal-952750701-r1" x="1464" y="93.2" textLength="12.2" clip-path="url(#terminal-952750701-line-3)">
</text><text class="terminal-952750701-r6" x="48.8" y="117.6" textLength="97.6" clip-path="url(#terminal-952750701-line-4)">◉&#160;active</text><text class="terminal-952750701-r3" x="219.6" y="117.6" textLength="829.6" clip-path="url(#terminal-952750701-line-4)">&#160;╭──@&#160;Learn&#160;guitar&#160;&#160;&#160;&#160;&#160;&#160;&#160;&#160;&#160;&#160;&#160;&#160;&#160;&#160;&#160;&#160;&#160;&#160;&#160;&#160;&#160;&#160;&#160;&#160;&#160;&#160;&#160;&#160;&#160;&#160;&#160;&#160;&#160;&#160;&#160;&#160;&#160;&#160;&#160;&#160;&#160;&#160;&#160;&#160;&#160;&#160;&#160;&#160;&#160;&#160;</text><text class="terminal-952750701-r1" x="1464" y="117.6" textLength="12.2" clip-path="url(#terminal-952750701-line-4)">
</text><text class="terminal-952750701-r8" x="48.8" y="142" textLength="24.4" clip-path="url(#terminal-952750701-line-5)">○&#160;</text><text class="terminal-952750701-r8" x="73.2" y="142" textLength="48.8" clip-path="url(#terminal-952750701-line-5)">todo</text><text class="terminal-952750701-r3" x="183" y="142" textLength="36.6" clip-path="url(#terminal-952750701-line-5)">&#160;▶&#160;</text><text class="terminal-952750701-r9" x="231.8" y="142" textLength="183" clip-path="url(#terminal-952750701-line-5)">Practice&#160;chords</text><text class="terminal-952750701-r1" x="1464" y="142" textLength="12.2" clip-path="url(#terminal-952750701-line-5)">
</text><text class="terminal-952750701-r10" x="48.8" y="166.4" textLength="73.2" clip-path="url(#terminal-952750701-line-6)">✓&#160;done</text><text class="terminal-952750701-r3" x="219.6" y="166.4" textLength="829.6" clip-path="url(#terminal-952750701-line-6)">&#160;╰──&#160;Find&#160;tutorials&#160;online&#160;&#160;&#160;&#160;&#160;&#160;&#160;&#160;&#160;&#160;&#160;&#160;&#160;&#160;&#160;&#160;&#160;&#160;&#160;&#160;&#160;&#160;&#160;&#160;&#160;&#160;&#160;&#160;&#160;&#160;&#160;&#160;&#160;&#160;&#160;&#160;&#160;&#160;&#160;&#160;&#160;&#160;</text><text class="terminal-952750701-r1" x="1464" y="166.4" textLength="12.2" clip-path="url(#terminal-952750701-line-6)">
</text><text class="terminal-952750701-r1" x="1464" y="190.8" textLength="12.2" clip-path="url(#terminal-952750701-line-7)">
</text><text class="terminal-952750701-r1" x="1464" y="215.2" textLength="12.2" clip-path="url(#terminal-952750701-line-8)">
</text><text class="terminal-952750701-r1" x="1464" y="239.6" textLength="12.2" clip-path="url(#terminal-952750701-line-9)">
</text><text class="terminal-952750701-r1" x="1464" y="264" textLength="12.2" clip-path="url(#terminal-952750701-line-10)">
</text><text class="terminal-952750701-r1" x="1464" y="288.4" textLength="12.2" clip-path="url(#terminal-952750701-line-11)">
</text><text class="terminal-952750701-r1" x="1464" y="312.8" textLength="12.2" clip-path="url(#terminal-952750701-line-12)">
</text><text class="terminal-952750701-r1" x="1464" y="337.2" textLength="12.2" clip-path="url(#terminal-952750701-line-13)">
</text><text class="terminal-952750701-r1" x="1464" y="361.6" textLength="12.2" clip-path="url(#terminal-952750701-line-14)">
</text><text class="terminal-952750701-r1" x="1464" y="386" textLength="12.2" clip-path="url(#terminal-952750701-line-15)">
</text><text class="terminal-952750701-r1" x="1464" y="410.4" textLength="12.2" clip-path="url(#terminal-952750701-line-16)">
</text><text class="terminal-952750701-r1" x="1464" y="434.8" textLength="12.2" clip-path="url(#terminal-952750701-line-17)">
</text><text class="terminal-952750701-r1" x="1464" y="459.2" textLength="12.2" clip-path="url(#terminal-952750701-line-18)">
</text><text class="terminal-952750701-r1" x="1464" y="483.6" textLength="12.2" clip-path="url(#terminal-952750701-line-19)">
</text><text class="terminal-952750701-r1" x="1464" y="508" textLength="12.2" clip-path="url(#terminal-952750701-line-20)">
</text><text class="terminal-952750701-r1" x="1464" y="532.4" textLength="12.2" clip-path="url(#terminal-952750701-line-21)">
</text><text class="terminal-952750701-r1" x="1464" y="556.8" textLength="12.2" clip-path="url(#terminal-952750701-line-22)">
</text><text class="terminal-952750701-r1" x="1464" y="581.2" textLength="12.2" clip-path="url(#terminal-952750701-line-23)">
</text><text class="terminal-952750701-r1" x="1464" y="605.6" textLength="12.2" clip-path="url(#terminal-952750701-line-24)">
</text><text class="terminal-952750701-r1" x="1464" y="630" textLength="12.2" clip-path="url(#terminal-952750701-line-25)">
</text><text class="terminal-952750701-r11" x="48.8" y="654.4" textLength="12.2" clip-path="url(#terminal-952750701-line-26)">╭</text><text class="terminal-952750701-r11" x="61" y="654.4" textLength="1000.4" clip-path="url(#terminal-952750701-line-26)">──────────────────────────────────────────────────────────────────────────────────</text><text class="terminal-952750701-r11" x="1061.4" y="654.4" textLength="12.2" clip-path="url(#terminal-952750701-line-26)">╮</text><text class="terminal-952750701-r1" x="1464" y="654.4" textLength="12.2" clip-path="url(#terminal-952750701-line-26)">
</text><text class="terminal-952750701-r11" x="48.8" y="678.8" textLength="12.2" clip-path="url(#terminal-952750701-line-27)">│</text><text class="terminal-952750701-r11" x="1061.4" y="678.8" textLength="12.2" clip-path="url(#terminal-952750701-line-27)">│</text><text class="terminal-952750701-r1" x="1464" y="678.8" textLength="12.2" clip-path="url(#terminal-952750701-line-27)">
</text><text class="terminal-952750701-r11" x="48.8" y="703.2" textLength="12.2" clip-path="url(#terminal-952750701-line-28)">│</text><text class="terminal-952750701-r11" x="85.4" y="703.2" textLength="12.2" clip-path="url(#terminal-952750701-line-28)">╭</text><text class="terminal-952750701-r11" x="97.6" y="703.2" textLength="12.2" clip-path="url(#terminal-952750701-line-28)">─</text><text class="terminal-952750701-r11" x="109.8" y="703.2" textLength="12.2" clip-path="url(#terminal-952750701-line-28)">─</text><text class="terminal-952750701-r12" x="122" y="703.2" textLength="12.2" clip-path="url(#terminal-952750701-line-28)">●</text><text class="terminal-952750701-r11" x="134.2" y="703.2" textLength="12.2" clip-path="url(#terminal-952750701-line-28)">─</text><text class="terminal-952750701-r11" x="146.4" y="703.2" textLength="12.2" clip-path="url(#terminal-952750701-line-28)">╮</text><text class="terminal-952750701-r13" x="183" y="703.2" textLength="817.4" clip-path="url(#terminal-952750701-line-28)">&gt;&gt;&#160;I&#160;notice&#160;this&#160;node&#160;sits&#160;between&#160;two&#160;active&#160;threads&#160;with&#160;no&#160;clear</text><text class="terminal-952750701-r11" x="1061.4" y="703.2" textLength="12.2" clip-path="url(#terminal-952750701-line-28)">│</text><text class="terminal-952750701-r1" x="1464" y="703.2" textLength="12.2" clip-path="url(#terminal-952750701-line-28)">
</text><text class="terminal-952750701-r11" x="48.8" y="727.6" textLength="12.2" clip-path="url(#terminal-952750701-line-29)">│</text><text class="terminal-952750701-r13" x="85.4" y="727.6" textLength="134.2" clip-path="url(#terminal-952750701-line-29)">connection.</text><text class="terminal-952750701-r11" x="1061.4" y="727.6" textLength="12.2" clip-path="url(#terminal-952750701-line-29)">│</text><text class="terminal-952750701-r1" x="1464" y="727.6" textLength="12.2" clip-path="url(#terminal-952750701-line-29)">
</text><text class="terminal-952750701-r11" x="48.8" y="752" textLength="12.2" clip-path="url(#terminal-952750701-line-30)">│</text><text class="terminal-952750701-r11" x="85.4" y="752" textLength="12.2" clip-path="url(#terminal-952750701-line-30)">│</text><text class="terminal-952750701-r11" x="146.4" y="752" textLength="12.2" clip-path="url(#terminal-952750701-line-30)">│</text><text class="terminal-952750701-r13" x="183" y="752" textLength="439.2" clip-path="url(#terminal-952750701-line-30)">&#160;&#160;&#160;What&#160;holds&#160;them&#160;together&#160;for&#160;you?</text><text class="terminal-952750701-r11" x="1061.4" y="752" textLength="12.2" clip-path="url(#terminal-952750701-line-30)">│</text><text class="terminal-952750701-r1" x="1464" y="752" textLength="12.2" clip-path="url(#terminal-952750701-line-30)">
</text><text class="terminal-952750701-r11" x="48.8" y="776.4" textLength="12.2" clip-path="url(#terminal-952750701-line-31)">│</text><text class="terminal-952750701-r11" x="85.4" y="776.4" textLength="12.2" clip-path="url(#terminal-952750701-line-31)">│</text><text class="terminal-952750701-r11" x="146.4" y="776.4" textLength="12.2" clip-path="url(#terminal-952750701-line-31)">│</text><text class="terminal-952750701-r11" x="1061.4" y="776.4" textLength="12.2" clip-path="url(#terminal-952750701-line-31)">│</text><text class="terminal-952750701-r1" x="1464" y="776.4" textLength="12.2" clip-path="url(#terminal-952750701-line-31)">
</text><text class="terminal-952750701-r11" x="48.8" y="800.8" textLength="12.2" clip-path="url(#terminal-952750701-line-32)">│</text><text class="terminal-952750701-r11" x="85.4" y="800.8" textLength="12.2" clip-path="url(#terminal-952750701-line-32)">│</text><text class="terminal-952750701-r11" x="146.4" y="800.8" textLength="12.2" clip-path="url(#terminal-952750701-line-32)">│</text><text class="terminal-952750701-r13" x="183" y="800.8" textLength="597.8" clip-path="url(#terminal-952750701-line-32)">&#160;&#160;_A_&#160;They&#160;share&#160;a&#160;constraint&#160;I&#160;haven&#x27;t&#160;named&#160;yet</text><text class="terminal-952750701-r11" x="1061.4" y="800.8" textLength="12.2" clip-path="url(#terminal-952750701-line-32)">│</text><text class="terminal-952750701-r1" x="1464" y="800.8" textLength="12.2" clip-path="url(#terminal-952750701-line-32)">
</text><text class="terminal-952750701-r11" x="48.8" y="825.2" textLength="12.2" clip-path="url(#terminal-952750701-line-33)">│</text><text class="terminal-952750701-r11" x="85.4" y="825.2" textLength="12.2" clip-path="url(#terminal-952750701-line-33)">│</text><text class="terminal-952750701-r11" x="146.4" y="825.2" textLength="12.2" clip-path="url(#terminal-952750701-line-33)">│</text><text class="terminal-952750701-r13" x="183" y="825.2" textLength="451.4" clip-path="url(#terminal-952750701-line-33)">&#160;&#160;_B_&#160;One&#160;is&#160;a&#160;fallback&#160;for&#160;the&#160;other</text><text class="terminal-952750701-r11" x="1061.4" y="825.2" textLength="12.2" clip-path="url(#terminal-952750701-line-33)">│</text><text class="terminal-952750701-r1" x="1464" y="825.2" textLength="12.2" clip-path="url(#terminal-952750701-line-33)">
</text><text class="terminal-952750701-r11" x="48.8" y="849.6" textLength="12.2" clip-path="url(#terminal-952750701-line-34)">│</text><text class="terminal-952750701-r11" x="85.4" y="849.6" textLength="12.2" clip-path="url(#terminal-952750701-line-34)">╰</text><text class="terminal-952750701-r11" x="97.6" y="849.6" textLength="12.2" clip-path="url(#terminal-952750701-line-34)">─</text><text class="terminal-952750701-r11" x="109.8" y="849.6" textLength="12.2" clip-path="url(#terminal-952750701-line-34)">─</text><text class="terminal-952750701-r11" x="122" y="849.6" textLength="12.2" clip-path="url(#terminal-952750701-line-34)">─</text><text class="terminal-952750701-r11" x="134.2" y="849.6" textLength="12.2" clip-path="url(#terminal-952750701-line-34)">─</text><text class="terminal-952750701-r11" x="146.4" y="849.6" textLength="12.2" clip-path="url(#terminal-952750701-line-34)">╯</text><text class="terminal-952750701-r13" x="183" y="849.6" textLength="463.6" clip-path="url(#terminal-952750701-line-34)">&#160;&#160;_C_&#160;They&#160;don&#x27;t&#160;—&#160;I&#160;should&#160;unlink&#160;one</text><text class="terminal-952750701-r11" x="1061.4" y="849.6" textLength="12.2" clip-path="url(#terminal-952750701-line-34)">│</text><text class="terminal-952750701-r1" x="1464" y="849.6" textLength="12.2" clip-path="url(#terminal-952750701-line-34)">
</text><text class="terminal-952750701-r11" x="48.8" y="874" textLength="12.2" clip-path="url(#terminal-952750701-line-35)">│</text><text class="terminal-952750701-r11" x="1061.4" y="874" textLength="12.2" clip-path="url(#terminal-952750701-line-35)">│</text><text class="terminal-952750701-r1" x="1464" y="874" textLength="12.2" clip-path="url(#terminal-952750701-line-35)">
</text><text class="terminal-952750701-r11" x="48.8" y="898.4" textLength="12.2" clip-path="url(#terminal-952750701-line-36)">│</text><text class="terminal-952750701-r11" x="1061.4" y="898.4" textLength="12.2" clip-path="url(#terminal-952750701-line-36)">│</text><text class="terminal-952750701-r1" x="1464" y="898.4" textLength="12.2" clip-path="url(#terminal-952750701-line-36)">
</text><text class="terminal-952750701-r11" x="48.8" y="922.8" textLength="12.2" clip-path="url(#terminal-952750701-line-37)">╰</text><text class="terminal-952750701-r11" x="61" y="922.8" textLength="1000.4" clip-path="url(#terminal-952750701-line-37)">──────────────────────────────────────────────────────────────────────────────────</text><text class="terminal-952750701-r11" x="1061.4" y="922.8" textLength="12.2" clip-path="url(#terminal-952750701-line-37)">╯</text><text class="terminal-952750701-r1" x="1464" y="922.8" textLength="12.2" clip-path="url(#terminal-952750701-line-37)">
</text><text class="terminal-952750701-r1" x="1464" y="947.2" textLength="12.2" clip-path="url(#terminal-952750701-line-38)">
</text><text class="terminal-952750701-r14" x="0" y="971.6" textLength="36.6" clip-path="url(#terminal-952750701-line-39)">&#160;q&#160;</text><text class="terminal-952750701-r3" x="36.6" y="971.6" textLength="61" clip-path="url(#terminal-952750701-line-39)">Quit&#160;</text><text class="terminal-952750701-r14" x="97.6" y="971.6" textLength="36.6" clip-path="url(#terminal-952750701-line-39)">&#160;h&#160;</text><text class="terminal-952750701-r3" x="134.2" y="971.6" textLength="61" clip-path="url(#terminal-952750701-line-39)">Home&#160;</text><text class="terminal-952750701-r14" x="195.2" y="971.6" textLength="61" clip-path="url(#terminal-952750701-line-39)">&#160;esc&#160;</text><text class="terminal-952750701-r3" x="256.2" y="971.6" textLength="61" clip-path="url(#terminal-952750701-line-39)">Back&#160;</text><text class="terminal-952750701-r14" x="317.2" y="971.6" textLength="36.6" clip-path="url(#terminal-952750701-line-39)">&#160;e&#160;</text><text class="terminal-952750701-r3" x="353.8" y="971.6" textLength="61" clip-path="url(#terminal-952750701-line-39)">Edit&#160;</text><text class="terminal-952750701-r14" x="414.8" y="971.6" textLength="36.6" clip-path="url(#terminal-952750701-line-39)">&#160;a&#160;</text><text class="terminal-952750701-r3" x="451.4" y="971.6" textLength="85.4" clip-path="url(#terminal-952750701-line-39)">Append&#160;</text><text class="terminal-952750701-r14" x="536.8" y="971.6" textLength="36.6" clip-path="url(#terminal-952750701-line-39)">&#160;z&#160;</text><text class="terminal-952750701-r3" x="573.4" y="971.6" textLength="146.4" clip-path="url(#terminal-952750701-line-39)">Link&#160;parent&#160;</text><text class="terminal-952750701-r14" x="719.8" y="971.6" textLength="36.6" clip-path="url(#terminal-952750701-line-39)">&#160;d&#160;</text><text class="terminal-952750701-r3" x="756.4" y="971.6" textLength="85.4" clip-path="url(#terminal-952750701-line-39)">Unlink&#160;</text><text class="terminal-952750701-r14" x="841.8" y="971.6" textLength="36.6" clip-path="url(#terminal-952750701-line-39)">&#160;D&#160;</text><text class="terminal-952750701-r3" x="878.4" y="971.6" textLength="146.4" clip-path="url(#terminal-952750701-line-39)">Delete&#160;node&#160;</text><text class="terminal-952750701-r14" x="1024.8" y="971.6" textLength="36.6" clip-path="url(#terminal-952750701-line-39)">&#160;y&#160;</text><text class="terminal-952750701-r3" x="1061.4" y="971.6" textLength="122" clip-path="url(#terminal-952750701-line-39)">Copy&#160;view&#160;</text><text class="terminal-952750701-r14" x="1183.4" y="971.6" textLength="48.8" clip-path="url(#terminal-952750701-line-39)">&#160;f2&#160;</text><text class="terminal-952750701-r3" x="1232.2" y="971.6" textLength="36.6" clip-path="url(#terminal-952750701-line-39)">AI&#160;</text><text class="terminal-952750701-r15" x="1317.6" y="971.6" textLength="12.2" clip-path="url(#terminal-952750701-line-39)">▏</text><text class="terminal-952750701-r14" x="1329.8" y="971.6" textLength="24.4" clip-path="url(#terminal-952750701-line-39)">^p</text><text class="terminal-952750701-r3" x="1354.2" y="971.6" textLength="97.6" clip-path="url(#terminal-952750701-line-39)">&#160;palette</text>
    </g>
    </g>
</svg>
