<svg class="rich-terminal" viewBox="0 0 1482 1026.0" xmlns="http://www.w3.org/2000/svg">
    <!-- Generated with Rich https://www.textualize.io -->
    <style>

    @font-face {
        font-family: "Fira Code";
        src: local("FiraCode-Regular"),
                url("https://cdnjs.cloudflare.com/ajax/libs/firacode/6.2.0/woff2/FiraCode-Regular.woff2") format("woff2"),
                url("https://cdnjs.cloudflare.com/ajax/libs/firacode/6.2.0/woff/FiraCode-Regular.woff") format("woff");
        font-style: normal;
        font-weight: 400;
    }
    @font-face {
        font-family: "Fira Code";
        src: local("FiraCode-Bold"),
                url("https://cdnjs.cloudflare.com/ajax/libs/firacode/6.2.0/woff2/FiraCode-Bold.woff2") format("woff2"),
                url("https://cdnjs.cloudflare.com/ajax/libs/firacode/6.2.0/woff/FiraCode-Bold.woff") format("woff");
        font-style: bold;
        font-weight: 700;
    }

    .terminal-2931005313-matrix {
        font-family: Fira Code, monospace;
        font-size: 20px;
        line-height: 24.4px;
        font-variant-east-asian: full-width;
    }

    .terminal-2931005313-title {
        font-size: 18px;
        font-weight: bold;
        font-family: arial;
    }

    .terminal-2931005313-r1 { fill: #e0e0e0 }
.terminal-2931005313-r2 { fill: #191d21;font-weight: bold }
.terminal-2931005313-r3 { fill: #646464 }
.terminal-2931005313-r4 { fill: #c5c8c6 }
.terminal-2931005313-r5 { fill: #2a2a2a }
.terminal-2931005313-r6 { fill: #484848 }
.terminal-2931005313-r7 { fill: #3b545f }
.terminal-2931005313-r8 { fill: #24444b }
.terminal-2931005313-r9 { fill: #3b545f;font-weight: bold }
.terminal-2931005313-r10 { fill: #646464;font-weight: bold }
.terminal-2931005313-r11 { fill: #6a685e }
.terminal-2931005313-r12 { fill: #121212 }
.terminal-2931005313-r13 { fill: #b93c5b }
.terminal-2931005313-r14 { fill: #e3e3e3;font-weight: bold }
.terminal-2931005313-r15 { fill: #ababab }
.terminal-2931005313-r16 { fill: #3e3e3e }
.terminal-2931005313-r17 { fill: #e0e0e0;font-weight: bold }
.terminal-2931005313-r18 { fill: #a0a0a0 }
.terminal-2931005313-r19 { fill: #6f6f6f }
.terminal-2931005313-r20 { fill: #704d1c;font-weight: bold }
    </style>

    <defs>
    <clipPath id="terminal-2931005313-clip-terminal">
      <rect x="0" y="0" width="1463.0" height="975.0" />
    </clipPath>
    <clipPath id="terminal-2931005313-line-0">
    <rect x="0" y="1.5" width="1464" height="24.65"/>
            </clipPath>
<clipPath id="terminal-2931005313-line-1">
    <rect x="0" y="25.9" width="1464" height="24.65"/>
            </clipPath>
<clipPath id="terminal-2931005313-line-2">
    <rect x="0" y="50.3" width="1464" height="24.65"/>
            </clipPath>
<clipPath id="terminal-2931005313-line-3">
    <rect x="0" y="74.7" width="1464" height="24.65"/>
            </clipPath>
<clipPath id="terminal-2931005313-line-4">
    <rect x="0" y="99.1" width="1464" height="24.65"/>
            </clipPath>
<clipPath id="terminal-2931005313-line-5">
    <rect x="0" y="123.5" width="1464" height="24.65"/>
            </clipPath>
<clipPath id="terminal-2931005313-line-6">
    <rect x="0" y="147.9" width="1464" height="24.65"/>
            </clipPath>
<clipPath id="terminal-2931005313-line-7">
    <rect x="0" y="172.3" width="1464" height="24.65"/>
            </clipPath>
<clipPath id="terminal-2931005313-line-8">
    <rect x="0" y="196.7" width="1464" height="24.65"/>
            </clipPath>
<clipPath id="terminal-2931005313-line-9">
    <rect x="0" y="221.1" width="1464" height="24.65"/>
            </clipPath>
<clipPath id="terminal-2931005313-line-10">
    <rect x="0" y="245.5" width="1464" height="24.65"/>
            </clipPath>
<clipPath id="terminal-2931005313-line-11">
    <rect x="0" y="269.9" width="1464" height="24.65"/>
            </clipPath>
<clipPath id="terminal-2931005313-line-12">
    <rect x="0" y="294.3" width="1464" height="24.65"/>
            </clipPath>
<clipPath id="terminal-2931005313-line-13">
    <rect x="0" y="318.7" width="1464" height="24.65"/>
            </clipPath>
<clipPath id="terminal-2931005313-line-14">
    <rect x="0" y="343.1" width="1464" height="24.65"/>
            </clipPath>
<clipPath id="terminal-2931005313-line-15">
    <rect x="0" y="367.5" width="1464" height="24.65"/>
            </clipPath>
<clipPath id="terminal-2931005313-line-16">
    <rect x="0" y="391.9" width="1464" height="24.65"/>
            </clipPath>
<clipPath id="terminal-2931005313-line-17">
    <rect x="0" y="416.3" width="1464" height="24.65"/>
            </clipPath>
<clipPath id="terminal-2931005313-line-18">
    <rect x="0" y="440.7" width="1464" height="24.65"/>
            </clipPath>
<clipPath id="terminal-2931005313-line-19">
    <rect x="0" y="465.1" width="1464" height="24.65"/>
            </clipPath>
<clipPath id="terminal-2931005313-line-20">
    <rect x="0" y="489.5" width="1464" height="24.65"/>
            </clipPath>
<clipPath id="terminal-2931005313-line-21">
    <rect x="0" y="513.9" width="1464" height="24.65"/>
            </clipPath>
<clipPath id="terminal-2931005313-line-22">
    <rect x="0" y="538.3" width="1464" height="24.65"/>
            </clipPath>
<clipPath id="terminal-2931005313-line-23">
    <rect x="0" y="562.7" width="1464" height="24.65"/>
            </clipPath>
<clipPath id="terminal-2931005313-line-24">
    <rect x="0" y="587.1" width="1464" height="24.65"/>
            </clipPath>
<clipPath id="terminal-2931005313-line-25">
    <rect x="0" y="611.5" width="1464" height="24.65"/>
            </clipPath>
<clipPath id="terminal-2931005313-line-26">
    <rect x="0" y="635.9" width="1464" height="24.65"/>
            </clipPath>
<clipPath id="terminal-2931005313-line-27">
    <rect x="0" y="660.3" width="1464" height="24.65"/>
            </clipPath>
<clipPath id="terminal-2931005313-line-28">
    <rect x="0" y="684.7" width="1464" height="24.65"/>
            </clipPath>
<clipPath id="terminal-2931005313-line-29">
    <rect x="0" y="709.1" width="1464" height="24.65"/>
            </clipPath>
<clipPath id="terminal-2931005313-line-30">
    <rect x="0" y="733.5" width="1464" height="24.65"/>
            </clipPath>
<clipPath id="terminal-2931005313-line-31">
    <rect x="0" y="757.9" width="1464" height="24.65"/>
            </clipPath>
<clipPath id="terminal-2931005313-line-32">
    <rect x="0" y="782.3" width="1464" height="24.65"/>
            </clipPath>
<clipPath id="terminal-2931005313-line-33">
    <rect x="0" y="806.7" width="1464" height="24.65"/>
            </clipPath>
<clipPath id="terminal-2931005313-line-34">
    <rect x="0" y="831.1" width="1464" height="24.65"/>
            </clipPath>
<clipPath id="terminal-2931005313-line-35">
    <rect x="0" y="855.5" width="1464" height="24.65"/>
            </clipPath>
<clipPath id="terminal-2931005313-line-36">
    <rect x="0" y="879.9" width="1464" height="24.65"/>
            </clipPath>
<clipPath id="terminal-2931005313-line-37">
    <rect x="0" y="904.3" width="1464" height="24.65"/>
            </clipPath>
<clipPath id="terminal-2931005313-line-38">
    <rect x="0" y="928.7" width="1464" height="24.65"/>
            </clipPath>
    </defs>

    <rect fill="#292929" stroke="rgba(255,255,255,0.35)" stroke-width="1" x="1" y="1" width="1480" height="1024" rx="8"/><text class="terminal-2931005313-title" fill="#c5c8c6" text-anchor="middle" x="740" y="27">pfq</text>
            <g transform="translate(26,22)">
            <circle cx="0" cy="0" r="7" fill="#ff5f57"/>
            <circle cx="22" cy="0" r="7" fill="#febc2e"/>
            <circle cx="44" cy="0" r="7" fill="#28c840"/>
            </g>
        
    <g transform="translate(9, 41)" clip-path="url(#terminal-2931005313-clip-terminal)">
    <rect fill="#191d21" x="0" y="1.5" width="12.2" height="24.65" shape-rendering="crispEdges"/><rect fill="#646464" x="12.2" y="1.5" width="85.4" height="24.65" shape-rendering="crispEdges"/><rect fill="#191d21" x="97.6" y="1.5" width="244" height="24.65" shape-rendering="crispEdges"/><rect fill="#191d21" x="341.6" y="1.5" width="1110.2" height="24.65" shape-rendering="crispEdges"/><rect fill="#191d21" x="1451.8" y="1.5" width="12.2" height="24.65" shape-rendering="crispEdges"/><rect fill="#121212" x="0" y="25.9" width="1464" height="24.65" shape-rendering="crispEdges"/><rect fill="#121212" x="0" y="50.3" width="12.2" height="24.65" shape-rendering="crispEdges"/><rect fill="#121212" x="12.2" y="50.3" width="170.8" height="24.65" shape-rendering="crispEdges"/><rect fill="#121212" x="183" y="50.3" width="658.8" height="24.65" shape-rendering="crispEdges"/><rect fill="#121212" x="841.8" y="50.3" width="292.8" height="24.65" shape-rendering="crispEdges"/><rect fill="#121212" x="1134.6" y="50.3" width="317.2" height="24.65" shape-rendering="crispEdges"/><rect fill="#121212" x="1451.8" y="50.3" width="12.2" height="24.65" shape-rendering="crispEdges"/><rect fill="#121212" x="0" y="74.7" width="12.2" height="24.65" shape-rendering="crispEdges"/><rect fill="#121212" x="12.2" y="74.7" width="170.8" height="24.65" shape-rendering="crispEdges"/><rect fill="#121212" x="183" y="74.7" width="12.2" height="24.65" shape-rendering="crispEdges"/><rect fill="#121212" x="195.2" y="74.7" width="97.6" height="24.65" shape-rendering="crispEdges"/><rect fill="#121212" x="292.8" y="74.7" width="549" height="24.65" shape-rendering="crispEdges"/><rect fill="#121212" x="841.8" y="74.7" width="292.8" height="24.65" shape-rendering="crispEdges"/><rect fill="#121212" x="1134.6" y="74.7" width="317.2" height="24.65" shape-rendering="crispEdges"/><rect fill="#121212" x="1451.8" y="74.7" width="12.2" height="24.65" shape-rendering="crispEdges"/><rect fill="#121212" x="0" y="99.1" width="12.2" height="24.65" shape-rendering="crispEdges"/><rect fill="#121212" x="12.2" y="99.1" width="12.2" height="24.65" shape-rendering="crispEdges"/><rect fill="#121212" x="24.4" y="99.1" width="97.6" height="24.65" shape-rendering="crispEdges"/><rect fill="#121212" x="122" y="99.1" width="61" height="24.65" shape-rendering="crispEdges"/><rect fill="#121212" x="183" y="99.1" width="658.8" height="24.65" shape-rendering="crispEdges"/><rect fill="#121212" x="841.8" y="99.1" width="12.2" height="24.65" shape-rendering="crispEdges"/><rect fill="#121212" x="854" y="99.1" width="85.4" height="24.65" shape-rendering="crispEdges"/><rect fill="#121212" x="939.4" y="99.1" width="195.2" height="24.65" shape-rendering="crispEdges"/><rect fill="#121212" x="1134.6" y="99.1" width="317.2" height="24.65" shape-rendering="crispEdges"/><rect fill="#121212" x="1451.8" y="99.1" width="12.2" height="24.65" shape-rendering="crispEdges"/><rect fill="#121212" x="0" y="123.5" width="12.2" height="24.65" shape-rendering="crispEdges"/><rect fill="#121212" x="12.2" y="123.5" width="12.2" height="24.65" shape-rendering="crispEdges"/><rect fill="#121212" x="24.4" y="123.5" width="97.6" height="24.65" shape-rendering="crispEdges"/><rect fill="#121212" x="122" y="123.5" width="61" height="24.65" shape-rendering="crispEdges"/><rect fill="#121212" x="183" y="123.5" width="12.2" height="24.65" shape-rendering="crispEdges"/><rect fill="#121212" x="195.2" y="123.5" width="207.4" height="24.65" shape-rendering="crispEdges"/><rect fill="#121212" x="402.6" y="123.5" width="439.2" height="24.65" shape-rendering="crispEdges"/><rect fill="#121212" x="841.8" y="123.5" width="12.2" height="24.65" shape-rendering="crispEdges"/><rect fill="#121212" x="854" y="123.5" width="61" height="24.65" shape-rendering="crispEdges"/><rect fill="#121212" x="915" y="123.5" width="219.6" height="24.65" shape-rendering="crispEdges"/><rect fill="#121212" x="1134.6" y="123.5" width="317.2" height="24.65" shape-rendering="crispEdges"/><rect fill="#121212" x="1451.8" y="123.5" width="12.2" height="24.65" shape-rendering="crispEdges"/><rect fill="#121212" x="0" y="147.9" width="12.2" height="24.65" shape-rendering="crispEdges"/><rect fill="#1d1a0a" x="12.2" y="147.9" width="170.8" height="24.65" shape-rendering="crispEdges"/><rect fill="#121212" x="183" y="147.9" width="658.8" height="24.65" shape-rendering="crispEdges"/><rect fill="#121212" x="841.8" y="147.9" width="12.2" height="24.65" shape-rendering="crispEdges"/><rect fill="#121212" x="854" y="147.9" width="158.6" height="24.65" shape-rendering="crispEdges"/><rect fill="#121212" x="1012.6" y="147.9" width="122" height="24.65" shape-rendering="crispEdges"/><rect fill="#121212" x="1134.6" y="147.9" width="317.2" height="24.65" shape-rendering="crispEdges"/><rect fill="#121212" x="1451.8" y="147.9" width="12.2" height="24.65" shape-rendering="crispEdges"/><rect fill="#121212" x="0" y="172.3" width="1464" height="24.65" shape-rendering="crispEdges"/><rect fill="#121212" x="0" y="196.7" width="1464" height="24.65" shape-rendering="crispEdges"/><rect fill="#121212" x="0" y="221.1" width="1464" height="24.65" shape-rendering="crispEdges"/><rect fill="#121212" x="0" y="245.5" width="1464" height="24.65" shape-rendering="crispEdges"/><rect fill="#121212" x="0" y="269.9" width="1464" height="24.65" shape-rendering="crispEdges"/><rect fill="#121212" x="0" y="294.3" width="353.8" height="24.65" shape-rendering="crispEdges"/><rect fill="#b93c5b" x="353.8" y="294.3" width="12.2" height="24.65" shape-rendering="crispEdges"/><rect fill="#b93c5b" x="366" y="294.3" width="24.4" height="24.65" shape-rendering="crispEdges"/><rect fill="#b93c5b" x="390.4" y="294.3" width="353.8" height="24.65" shape-rendering="crispEdges"/><rect fill="#b93c5b" x="744.2" y="294.3" width="329.4" height="24.65" shape-rendering="crispEdges"/><rect fill="#b93c5b" x="1073.6" y="294.3" width="24.4" height="24.65" shape-rendering="crispEdges"/><rect fill="#121212" x="1098" y="294.3" width="12.2" height="24.65" shape-rendering="crispEdges"/><rect fill="#121212" x="1110.2" y="294.3" width="353.8" height="24.65" shape-rendering="crispEdges"/><rect fill="#121212" x="0" y="318.7" width="353.8" height="24.65" shape-rendering="crispEdges"/><rect fill="#b93c5b" x="353.8" y="318.7" width="12.2" height="24.65" shape-rendering="crispEdges"/><rect fill="#121212" x="366" y="318.7" width="732" height="24.65" shape-rendering="crispEdges"/><rect fill="#121212" x="1098" y="318.7" width="12.2" height="24.65" shape-rendering="crispEdges"/><rect fill="#121212" x="1110.2" y="318.7" width="353.8" height="24.65" shape-rendering="crispEdges"/><rect fill="#121212" x="0" y="343.1" width="353.8" height="24.65" shape-rendering="crispEdges"/><rect fill="#b93c5b" x="353.8" y="343.1" width="12.2" height="24.65" shape-rendering="crispEdges"/><rect fill="#121212" x="366" y="343.1" width="24.4" height="24.65" shape-rendering="crispEdges"/><rect fill="#2d2d2d" x="390.4" y="343.1" width="12.2" height="24.65" shape-rendering="crispEdges"/><rect fill="#2d2d2d" x="402.6" y="343.1" width="658.8" height="24.65" shape-rendering="crispEdges"/><rect fill="#2d2d2d" x="1061.4" y="343.1" width="12.2" height="24.65" shape-rendering="crispEdges"/><rect fill="#121212" x="1073.6" y="343.1" width="24.4" height="24.65" shape-rendering="crispEdges"/><rect fill="#121212" x="1098" y="343.1" width="12.2" height="24.65" shape-rendering="crispEdges"/><rect fill="#121212" x="1110.2" y="343.1" width="353.8" height="24.65" shape-rendering="crispEdges"/><rect fill="#121212" x="0" y="367.5" width="353.8" height="24.65" shape-rendering="crispEdges"/><rect fill="#b93c5b" x="353.8" y="367.5" width="12.2" height="24.65" shape-rendering="crispEdges"/><rect fill="#121212" x="366" y="367.5" width="24.4" height="24.65" shape-rendering="crispEdges"/><rect fill="#2d2d2d" x="390.4" y="367.5" width="12.2" height="24.65" shape-rendering="crispEdges"/><rect fill="#2d2d2d" x="402.6" y="367.5" width="12.2" height="24.65" shape-rendering="crispEdges"/><rect fill="#2d2d2d" x="414.8" y="367.5" width="353.8" height="24.65" shape-rendering="crispEdges"/><rect fill="#2d2d2d" x="768.6" y="367.5" width="280.6" height="24.65" shape-rendering="crispEdges"/><rect fill="#2d2d2d" x="1049.2" y="367.5" width="12.2" height="24.65" shape-rendering="crispEdges"/><rect fill="#2d2d2d" x="1061.4" y="367.5" width="12.2" height="24.65" shape-rendering="crispEdges"/><rect fill="#121212" x="1073.6" y="367.5" width="24.4" height="24.65" shape-rendering="crispEdges"/><rect fill="#121212" x="1098" y="367.5" width="12.2" height="24.65" shape-rendering="crispEdges"/><rect fill="#121212" x="1110.2" y="367.5" width="353.8" height="24.65" shape-rendering="crispEdges"/><rect fill="#121212" x="0" y="391.9" width="353.8" height="24.65" shape-rendering="crispEdges"/><rect fill="#b93c5b" x="353.8" y="391.9" width="12.2" height="24.65" shape-rendering="crispEdges"/><rect fill="#121212" x="366" y="391.9" width="24.4" height="24.65" shape-rendering="crispEdges"/><rect fill="#2d2d2d" x="390.4" y="391.9" width="12.2" height="24.65" shape-rendering="crispEdges"/><rect fill="#2d2d2d" x="402.6" y="391.9" width="12.2" height="24.65" shape-rendering="crispEdges"/><rect fill="#2d2d2d" x="414.8" y="391.9" width="12.2" height="24.65" shape-rendering="crispEdges"/><rect fill="#2d2d2d" x="427" y="391.9" width="536.8" height="24.65" shape-rendering="crispEdges"/><rect fill="#2d2d2d" x="963.8" y="391.9" width="85.4" height="24.65" shape-rendering="crispEdges"/><rect fill="#2d2d2d" x="1049.2" y="391.9" width="12.2" height="24.65" shape-rendering="crispEdges"/><rect fill="#2d2d2d" x="1061.4" y="391.9" width="12.2" height="24.65" shape-rendering="crispEdges"/><rect fill="#121212" x="1073.6" y="391.9" width="24.4" height="24.65" shape-rendering="crispEdges"/><rect fill="#121212" x="1098" y="391.9" width="12.2" height="24.65" shape-rendering="crispEdges"/><rect fill="#121212" x="1110.2" y="391.9" width="353.8" height="24.65" shape-rendering="crispEdges"/><rect fill="#121212" x="0" y="416.3" width="353.8" height="24.65" shape-rendering="crispEdges"/><rect fill="#b93c5b" x="353.8" y="416.3" width="12.2" height="24.65" shape-rendering="crispEdges"/><rect fill="#121212" x="366" y="416.3" width="24.4" height="24.65" shape-rendering="crispEdges"/><rect fill="#2d2d2d" x="390.4" y="416.3" width="12.2" height="24.65" shape-rendering="crispEdges"/><rect fill="#2d2d2d" x="402.6" y="416.3" width="658.8" height="24.65" shape-rendering="crispEdges"/><rect fill="#2d2d2d" x="1061.4" y="416.3" width="12.2" height="24.65" shape-rendering="crispEdges"/><rect fill="#121212" x="1073.6" y="416.3" width="24.4" height="24.65" shape-rendering="crispEdges"/><rect fill="#121212" x="1098" y="416.3" width="12.2" height="24.65" shape-rendering="crispEdges"/><rect fill="#121212" x="1110.2" y="416.3" width="353.8" height="24.65" shape-rendering="crispEdges"/><rect fill="#121212" x="0" y="440.7" width="353.8" height="24.65" shape-rendering="crispEdges"/><rect fill="#b93c5b" x="353.8" y="440.7" width="12.2" height="24.65" shape-rendering="crispEdges"/><rect fill="#121212" x="366" y="440.7" width="24.4" height="24.65" shape-rendering="crispEdges"/><rect fill="#121212" x="390.4" y="440.7" width="683.2" height="24.65" shape-rendering="crispEdges"/><rect fill="#121212" x="1073.6" y="440.7" width="24.4" height="24.65" shape-rendering="crispEdges"/><rect fill="#121212" x="1098" y="440.7" width="12.2" height="24.65" shape-rendering="crispEdges"/><rect fill="#121212" x="1110.2" y="440.7" width="353.8" height="24.65" shape-rendering="crispEdges"/><rect fill="#121212" x="0" y="465.1" width="353.8" height="24.65" shape-rendering="crispEdges"/><rect fill="#b93c5b" x="353.8" y="465.1" width="12.2" height="24.65" shape-rendering="crispEdges"/><rect fill="#121212" x="366" y="465.1" width="24.4" height="24.65" shape-rendering="crispEdges"/><rect fill="#121212" x="390.4" y="465.1" width="12.2" height="24.65" shape-rendering="crispEdges"/><rect fill="#121212" x="402.6" y="465.1" width="658.8" height="24.65" shape-rendering="crispEdges"/><rect fill="#121212" x="1061.4" y="465.1" width="12.2" height="24.65" shape-rendering="crispEdges"/><rect fill="#121212" x="1073.6" y="465.1" width="24.4" height="24.65" shape-rendering="crispEdges"/><rect fill="#121212" x="1098" y="465.1" width="12.2" height="24.65" shape-rendering="crispEdges"/><rect fill="#121212" x="1110.2" y="465.1" width="353.8" height="24.65" shape-rendering="crispEdges"/><rect fill="#121212" x="0" y="489.5" width="353.8" height="24.65" shape-rendering="crispEdges"/><rect fill="#b93c5b" x="353.8" y="489.5" width="12.2" height="24.65" shape-rendering="crispEdges"/><rect fill="#121212" x="366" y="489.5" width="24.4" height="24.65" shape-rendering="crispEdges"/><rect fill="#121212" x="390.4" y="489.5" width="12.2" height="24.65" shape-rendering="crispEdges"/><rect fill="#121212" x="402.6" y="489.5" width="12.2" height="24.65" shape-rendering="crispEdges"/><rect fill="#121212" x="414.8" y="489.5" width="134.2" height="24.65" shape-rendering="crispEdges"/><rect fill="#121212" x="549" y="489.5" width="500.2" height="24.65" shape-rendering="crispEdges"/><rect fill="#121212" x="1049.2" y="489.5" width="12.2" height="24.65" shape-rendering="crispEdges"/><rect fill="#121212" x="1061.4" y="489.5" width="12.2" height="24.65" shape-rendering="crispEdges"/><rect fill="#121212" x="1073.6" y="489.5" width="24.4" height="24.65" shape-rendering="crispEdges"/><rect fill="#121212" x="1098" y="489.5" width="12.2" height="24.65" shape-rendering="crispEdges"/><rect fill="#121212" x="1110.2" y="489.5" width="353.8" height="24.65" shape-rendering="crispEdges"/><rect fill="#121212" x="0" y="513.9" width="353.8" height="24.65" shape-rendering="crispEdges"/><rect fill="#b93c5b" x="353.8" y="513.9" width="12.2" height="24.65" shape-rendering="crispEdges"/><rect fill="#121212" x="366" y="513.9" width="24.4" height="24.65" shape-rendering="crispEdges"/><rect fill="#121212" x="390.4" y="513.9" width="12.2" height="24.65" shape-rendering="crispEdges"/><rect fill="#121212" x="402.6" y="513.9" width="12.2" height="24.65" shape-rendering="crispEdges"/><rect fill="#121212" x="414.8" y="513.9" width="12.2" height="24.65" shape-rendering="crispEdges"/><rect fill="#121212" x="427" y="513.9" width="292.8" height="24.65" shape-rendering="crispEdges"/><rect fill="#121212" x="719.8" y="513.9" width="329.4" height="24.65" shape-rendering="crispEdges"/><rect fill="#121212" x="1049.2" y="513.9" width="12.2" height="24.65" shape-rendering="crispEdges"/><rect fill="#121212" x="1061.4" y="513.9" width="12.2" height="24.65" shape-rendering="crispEdges"/><rect fill="#121212" x="1073.6" y="513.9" width="24.4" height="24.65" shape-rendering="crispEdges"/><rect fill="#121212" x="1098" y="513.9" width="12.2" height="24.65" shape-rendering="crispEdges"/><rect fill="#121212" x="1110.2" y="513.9" width="353.8" height="24.65" shape-rendering="crispEdges"/><rect fill="#121212" x="0" y="538.3" width="353.8" height="24.65" shape-rendering="crispEdges"/><rect fill="#b93c5b" x="353.8" y="538.3" width="12.2" height="24.65" shape-rendering="crispEdges"/><rect fill="#121212" x="366" y="538.3" width="24.4" height="24.65" shape-rendering="crispEdges"/><rect fill="#121212" x="390.4" y="538.3" width="12.2" height="24.65" shape-rendering="crispEdges"/><rect fill="#121212" x="402.6" y="538.3" width="658.8" height="24.65" shape-rendering="crispEdges"/><rect fill="#121212" x="1061.4" y="538.3" width="12.2" height="24.65" shape-rendering="crispEdges"/><rect fill="#121212" x="1073.6" y="538.3" width="24.4" height="24.65" shape-rendering="crispEdges"/><rect fill="#121212" x="1098" y="538.3" width="12.2" height="24.65" shape-rendering="crispEdges"/><rect fill="#121212" x="1110.2" y="538.3" width="353.8" height="24.65" shape-rendering="crispEdges"/><rect fill="#121212" x="0" y="562.7" width="353.8" height="24.65" shape-rendering="crispEdges"/><rect fill="#b93c5b" x="353.8" y="562.7" width="12.2" height="24.65" shape-rendering="crispEdges"/><rect fill="#121212" x="366" y="562.7" width="24.4" height="24.65" shape-rendering="crispEdges"/><rect fill="#121212" x="390.4" y="562.7" width="683.2" height="24.65" shape-rendering="crispEdges"/><rect fill="#121212" x="1073.6" y="562.7" width="24.4" height="24.65" shape-rendering="crispEdges"/><rect fill="#121212" x="1098" y="562.7" width="12.2" height="24.65" shape-rendering="crispEdges"/><rect fill="#121212" x="1110.2" y="562.7" width="353.8" height="24.65" shape-rendering="crispEdges"/><rect fill="#121212" x="0" y="587.1" width="353.8" height="24.65" shape-rendering="crispEdges"/><rect fill="#b93c5b" x="353.8" y="587.1" width="12.2" height="24.65" shape-rendering="crispEdges"/><rect fill="#121212" x="366" y="587.1" width="24.4" height="24.65" shape-rendering="crispEdges"/><rect fill="#121212" x="390.4" y="587.1" width="463.6" height="24.65" shape-rendering="crispEdges"/><rect fill="#121212" x="854" y="587.1" width="219.6" height="24.65" shape-rendering="crispEdges"/><rect fill="#121212" x="1073.6" y="587.1" width="24.4" height="24.65" shape-rendering="crispEdges"/><rect fill="#121212" x="1098" y="587.1" width="12.2" height="24.65" shape-rendering="crispEdges"/><rect fill="#121212" x="1110.2" y="587.1" width="353.8" height="24.65" shape-rendering="crispEdges"/><rect fill="#121212" x="0" y="611.5" width="353.8" height="24.65" shape-rendering="crispEdges"/><rect fill="#b93c5b" x="353.8" y="611.5" width="12.2" height="24.65" shape-rendering="crispEdges"/><rect fill="#121212" x="366" y="611.5" width="732" height="24.65" shape-rendering="crispEdges"/><rect fill="#121212" x="1098" y="611.5" width="12.2" height="24.65" shape-rendering="crispEdges"/><rect fill="#121212" x="1110.2" y="611.5" width="353.8" height="24.65" shape-rendering="crispEdges"/><rect fill="#121212" x="0" y="635.9" width="353.8" height="24.65" shape-rendering="crispEdges"/><rect fill="#b93c5b" x="353.8" y="635.9" width="12.2" height="24.65" shape-rendering="crispEdges"/><rect fill="#121212" x="366" y="635.9" width="732" height="24.65" shape-rendering="crispEdges"/><rect fill="#121212" x="1098" y="635.9" width="12.2" height="24.65" shape-rendering="crispEdges"/><rect fill="#121212" x="1110.2" y="635.9" width="353.8" height="24.65" shape-rendering="crispEdges"/><rect fill="#121212" x="0" y="660.3" width="1464" height="24.65" shape-rendering="crispEdges"/><rect fill="#121212" x="0" y="684.7" width="1464" height="24.65" shape-rendering="crispEdges"/><rect fill="#121212" x="0" y="709.1" width="1464" height="24.65" shape-rendering="crispEdges"/><rect fill="#121212" x="0" y="733.5" width="1464" height="24.65" shape-rendering="crispEdges"/><rect fill="#121212" x="0" y="757.9" width="1464" height="24.65" shape-rendering="crispEdges"/><rect fill="#121212" x="0" y="782.3" width="1464" height="24.65" shape-rendering="crispEdges"/><rect fill="#121212" x="0" y="806.7" width="1464" height="24.65" shape-rendering="crispEdges"/><rect fill="#121212" x="0" y="831.1" width="1464" height="24.65" shape-rendering="crispEdges"/><rect fill="#121212" x="0" y="855.5" width="1464" height="24.65" shape-rendering="crispEdges"/><rect fill="#121212" x="0" y="879.9" width="1464" height="24.65" shape-rendering="crispEdges"/><rect fill="#121212" x="0" y="904.3" width="1464" height="24.65" shape-rendering="crispEdges"/><rect fill="#121212" x="0" y="928.7" width="1464" height="24.65" shape-rendering="crispEdges"/><rect fill="#191d21" x="0" y="953.1" width="36.6" height="24.65" shape-rendering="crispEdges"/><rect fill="#191d21" x="36.6" y="953.1" width="61" height="24.65" shape-rendering="crispEdges"/><rect fill="#191d21" x="97.6" y="953.1" width="36.6" height="24.65" shape-rendering="crispEdges"/><rect fill="#191d21" x="134.2" y="953.1" width="61" height="24.65" shape-rendering="crispEdges"/><rect fill="#191d21" x="195.2" y="953.1" width="61" height="24.65" shape-rendering="crispEdges"/><rect fill="#191d21" x="256.2" y="953.1" width="61" height="24.65" shape-rendering="crispEdges"/><rect fill="#191d21" x="317.2" y="953.1" width="36.6" height="24.65" shape-rendering="crispEdges"/><rect fill="#191d21" x="353.8" y="953.1" width="61" height="24.65" shape-rendering="crispEdges"/><rect fill="#191d21" x="414.8" y="953.1" width="36.6" height="24.65" shape-rendering="crispEdges"/><rect fill="#191d21" x="451.4" y="953.1" width="85.4" height="24.65" shape-rendering="crispEdges"/><rect fill="#191d21" x="536.8" y="953.1" width="36.6" height="24.65" shape-rendering="crispEdges"/><rect fill="#191d21" x="573.4" y="953.1" width="146.4" height="24.65" shape-rendering="crispEdges"/><rect fill="#191d21" x="719.8" y="953.1" width="36.6" height="24.65" shape-rendering="crispEdges"/><rect fill="#191d21" x="756.4" y="953.1" width="85.4" height="24.65" shape-rendering="crispEdges"/><rect fill="#191d21" x="841.8" y="953.1" width="36.6" height="24.65" shape-rendering="crispEdges"/><rect fill="#191d21" x="878.4" y="953.1" width="122" height="24.65" shape-rendering="crispEdges"/><rect fill="#191d21" x="1000.4" y="953.1" width="36.6" height="24.65" shape-rendering="crispEdges"/><rect fill="#191d21" x="1037" y="953.1" width="85.4" height="24.65" shape-rendering="crispEdges"/><rect fill="#191d21" x="1122.4" y="953.1" width="48.8" height="24.65" shape-rendering="crispEdges"/><rect fill="#191d21" x="1171.2" y="953.1" width="36.6" height="24.65" shape-rendering="crispEdges"/><rect fill="#191d21" x="1207.8" y="953.1" width="256.2" height="24.65" shape-rendering="crispEdges"/>
    <g class="terminal-2931005313-matrix">
    <text class="terminal-2931005313-r2" x="12.2" y="20" textLength="85.4" clip-path="url(#terminal-2931005313-line-0)">&#160;p&#160;f&#160;q&#160;</text><text class="terminal-2931005313-r3" x="97.6" y="20" textLength="244" clip-path="url(#terminal-2931005313-line-0)">&#160;&#160;vault:&#160;test_vault/</text><text class="terminal-2931005313-r4" x="1464" y="20" textLength="12.2" clip-path="url(#terminal-2931005313-line-0)">
</text><text class="terminal-2931005313-r4" x="1464" y="44.4" textLength="12.2" clip-path="url(#terminal-2931005313-line-1)">
</text><text class="terminal-2931005313-r5" x="12.2" y="68.8" textLength="170.8" clip-path="url(#terminal-2931005313-line-2)">&#160;status&#160;&#160;&#160;&#160;&#160;&#160;&#160;</text><text class="terminal-2931005313-r5" x="183" y="68.8" textLength="658.8" clip-path="url(#terminal-2931005313-line-2)">&#160;description&#160;&#160;&#160;&#160;&#160;&#160;&#160;&#160;&#160;&#160;&#160;&#160;&#160;&#160;&#160;&#160;&#160;&#160;&#160;&#160;&#160;&#160;&#160;&#160;&#160;&#160;&#160;&#160;&#160;&#160;&#160;&#160;&#160;&#160;&#160;&#160;&#160;&#160;&#160;&#160;&#160;&#160;</text><text class="terminal-2931005313-r5" x="841.8" y="68.8" textLength="292.8" clip-path="url(#terminal-2931005313-line-2)">&#160;when&#160;&#160;&#160;&#160;&#160;&#160;&#160;&#160;&#160;&#160;&#160;&#160;&#160;&#160;&#160;&#160;&#160;&#160;&#160;</text><text class="terminal-2931005313-r4" x="1464" y="68.8" textLength="12.2" clip-path="url(#terminal-2931005313-line-2)">
</text><text class="terminal-2931005313-r6" x="195.2" y="93.2" textLength="97.6" clip-path="url(#terminal-2931005313-line-3)">&#160;&#160;─&#160;root</text><text class="terminal-2931005313-r4" x="1464" y="93.2" textLength="12.2" clip-path="url(#terminal-2931005313-line-3)">
</text><text class="terminal-2931005313-r7" x="24.4" y="117.6" textLength="97.6" clip-path="url(#terminal-2931005313-line-4)">▸&#160;active</text><text class="terminal-2931005313-r3" x="183" y="117.6" textLength="658.8" clip-path="url(#terminal-2931005313-line-4)">&#160;&#160;&#160;╭──@&#160;Learn&#160;guitar&#160;&#160;&#160;&#160;&#160;&#160;&#160;&#160;&#160;&#160;&#160;&#160;&#160;&#160;&#160;&#160;&#160;&#160;&#160;&#160;&#160;&#160;&#160;&#160;&#160;&#160;&#160;&#160;&#160;&#160;&#160;&#160;&#160;&#160;</text><text class="terminal-2931005313-r8" x="854" y="117.6" textLength="85.4" clip-path="url(#terminal-2931005313-line-4)">↻&#160;fri&#160;1</text><text class="terminal-2931005313-r4" x="1464" y="117.6" textLength="12.2" clip-path="url(#terminal-2931005313-line-4)">
</text><text class="terminal-2931005313-r9" x="24.4" y="142" textLength="97.6" clip-path="url(#terminal-2931005313-line-5)">▸&#160;active</text><text class="terminal-2931005313-r10" x="195.2" y="142" textLength="207.4" clip-path="url(#terminal-2931005313-line-5)">▶&#160;Practice&#160;chords</text><text class="terminal-2931005313-r8" x="854" y="142" textLength="61" clip-path="url(#terminal-2931005313-line-5)">↻&#160;sun</text><text class="terminal-2931005313-r4" x="1464" y="142" textLength="12.2" clip-path="url(#terminal-2931005313-line-5)">
</text><text class="terminal-2931005313-r11" x="12.2" y="166.4" textLength="170.8" clip-path="url(#terminal-2931005313-line-6)">&#160;✓&#160;done&#160;&#160;&#160;&#160;&#160;&#160;&#160;</text><text class="terminal-2931005313-r3" x="183" y="166.4" textLength="658.8" clip-path="url(#terminal-2931005313-line-6)">&#160;&#160;&#160;╰──&#160;Find&#160;tutorials&#160;online&#160;&#160;&#160;&#160;&#160;&#160;&#160;&#160;&#160;&#160;&#160;&#160;&#160;&#160;&#160;&#160;&#160;&#160;&#160;&#160;&#160;&#160;&#160;&#160;&#160;&#160;</text><text class="terminal-2931005313-r8" x="854" y="166.4" textLength="158.6" clip-path="url(#terminal-2931005313-line-6)">1w&#160;ago&#160;&#160;(1mo)</text><text class="terminal-2931005313-r4" x="1464" y="166.4" textLength="12.2" clip-path="url(#terminal-2931005313-line-6)">
</text><text class="terminal-2931005313-r4" x="1464" y="190.8" textLength="12.2" clip-path="url(#terminal-2931005313-line-7)">
</text><text class="terminal-2931005313-r4" x="1464" y="215.2" textLength="12.2" clip-path="url(#terminal-2931005313-line-8)">
</text><text class="terminal-2931005313-r4" x="1464" y="239.6" textLength="12.2" clip-path="url(#terminal-2931005313-line-9)">
</text><text class="terminal-2931005313-r4" x="1464" y="264" textLength="12.2" clip-path="url(#terminal-2931005313-line-10)">
</text><text class="terminal-2931005313-r4" x="1464" y="288.4" textLength="12.2" clip-path="url(#terminal-2931005313-line-11)">
</text><text class="terminal-2931005313-r12" x="353.8" y="312.8" textLength="12.2" clip-path="url(#terminal-2931005313-line-12)">▊</text><text class="terminal-2931005313-r12" x="390.4" y="312.8" textLength="353.8" clip-path="url(#terminal-2931005313-line-12)">Delete&#160;&#160;Find&#160;tutorials&#160;online</text><text class="terminal-2931005313-r13" x="1098" y="312.8" textLength="12.2" clip-path="url(#terminal-2931005313-line-12)">▎</text><text class="terminal-2931005313-r4" x="1464" y="312.8" textLength="12.2" clip-path="url(#terminal-2931005313-line-12)">
</text><text class="terminal-2931005313-r12" x="353.8" y="337.2" textLength="12.2" clip-path="url(#terminal-2931005313-line-13)">▊</text><text class="terminal-2931005313-r13" x="1098" y="337.2" textLength="12.2" clip-path="url(#terminal-2931005313-line-13)">▎</text><text class="terminal-2931005313-r4" x="1464" y="337.2" textLength="12.2" clip-path="url(#terminal-2931005313-line-13)">
</text><text class="terminal-2931005313-r12" x="353.8" y="361.6" textLength="12.2" clip-path="url(#terminal-2931005313-line-14)">▊</text><text class="terminal-2931005313-r13" x="390.4" y="361.6" textLength="12.2" clip-path="url(#terminal-2931005313-line-14)">╭</text><text class="terminal-2931005313-r13" x="402.6" y="361.6" textLength="658.8" clip-path="url(#terminal-2931005313-line-14)">──────────────────────────────────────────────────────</text><text class="terminal-2931005313-r13" x="1061.4" y="361.6" textLength="12.2" clip-path="url(#terminal-2931005313-line-14)">╮</text><text class="terminal-2931005313-r13" x="1098" y="361.6" textLength="12.2" clip-path="url(#terminal-2931005313-line-14)">▎</text><text class="terminal-2931005313-r4" x="1464" y="361.6" textLength="12.2" clip-path="url(#terminal-2931005313-line-14)">
</text><text class="terminal-2931005313-r12" x="353.8" y="386" textLength="12.2" clip-path="url(#terminal-2931005313-line-15)">▊</text><text class="terminal-2931005313-r13" x="390.4" y="386" textLength="12.2" clip-path="url(#terminal-2931005313-line-15)">│</text><text class="terminal-2931005313-r14" x="414.8" y="386" textLength="353.8" clip-path="url(#terminal-2931005313-line-15)">Unlink&#160;from&#160;&quot;Practice&#160;chords&quot;</text><text class="terminal-2931005313-r13" x="1061.4" y="386" textLength="12.2" clip-path="url(#terminal-2931005313-line-15)">│</text><text class="terminal-2931005313-r13" x="1098" y="386" textLength="12.2" clip-path="url(#terminal-2931005313-line-15)">▎</text><text class="terminal-2931005313-r4" x="1464" y="386" textLength="12.2" clip-path="url(#terminal-2931005313-line-15)">
</text><text class="terminal-2931005313-r12" x="353.8" y="410.4" textLength="12.2" clip-path="url(#terminal-2931005313-line-16)">▊</text><text class="terminal-2931005313-r13" x="390.4" y="410.4" textLength="12.2" clip-path="url(#terminal-2931005313-line-16)">│</text><text class="terminal-2931005313-r15" x="427" y="410.4" textLength="536.8" clip-path="url(#terminal-2931005313-line-16)">Both&#160;nodes&#160;stay&#160;—&#160;only&#160;this&#160;link&#160;is&#160;removed.</text><text class="terminal-2931005313-r13" x="1061.4" y="410.4" textLength="12.2" clip-path="url(#terminal-2931005313-line-16)">│</text><text class="terminal-2931005313-r13" x="1098" y="410.4" textLength="12.2" clip-path="url(#terminal-2931005313-line-16)">▎</text><text class="terminal-2931005313-r4" x="1464" y="410.4" textLength="12.2" clip-path="url(#terminal-2931005313-line-16)">
</text><text class="terminal-2931005313-r12" x="353.8" y="434.8" textLength="12.2" clip-path="url(#terminal-2931005313-line-17)">▊</text><text class="terminal-2931005313-r13" x="390.4" y="434.8" textLength="12.2" clip-path="url(#terminal-2931005313-line-17)">╰</text><text class="terminal-2931005313-r13" x="402.6" y="434.8" textLength="658.8" clip-path="url(#terminal-2931005313-line-17)">──────────────────────────────────────────────────────</text><text class="terminal-2931005313-r13" x="1061.4" y="434.8" textLength="12.2" clip-path="url(#terminal-2931005313-line-17)">╯</text><text class="terminal-2931005313-r13" x="1098" y="434.8" textLength="12.2" clip-path="url(#terminal-2931005313-line-17)">▎</text><text class="terminal-2931005313-r4" x="1464" y="434.8" textLength="12.2" clip-path="url(#terminal-2931005313-line-17)">
</text><text class="terminal-2931005313-r12" x="353.8" y="459.2" textLength="12.2" clip-path="url(#terminal-2931005313-line-18)">▊</text><text class="terminal-2931005313-r13" x="1098" y="459.2" textLength="12.2" clip-path="url(#terminal-2931005313-line-18)">▎</text><text class="terminal-2931005313-r4" x="1464" y="459.2" textLength="12.2" clip-path="url(#terminal-2931005313-line-18)">
</text><text class="terminal-2931005313-r12" x="353.8" y="483.6" textLength="12.2" clip-path="url(#terminal-2931005313-line-19)">▊</text><text class="terminal-2931005313-r16" x="390.4" y="483.6" textLength="12.2" clip-path="url(#terminal-2931005313-line-19)">╭</text><text class="terminal-2931005313-r16" x="402.6" y="483.6" textLength="658.8" clip-path="url(#terminal-2931005313-line-19)">──────────────────────────────────────────────────────</text><text class="terminal-2931005313-r16" x="1061.4" y="483.6" textLength="12.2" clip-path="url(#terminal-2931005313-line-19)">╮</text><text class="terminal-2931005313-r13" x="1098" y="483.6" textLength="12.2" clip-path="url(#terminal-2931005313-line-19)">▎</text><text class="terminal-2931005313-r4" x="1464" y="483.6" textLength="12.2" clip-path="url(#terminal-2931005313-line-19)">
</text><text class="terminal-2931005313-r12" x="353.8" y="508" textLength="12.2" clip-path="url(#terminal-2931005313-line-20)">▊</text><text class="terminal-2931005313-r16" x="390.4" y="508" textLength="12.2" clip-path="url(#terminal-2931005313-line-20)">│</text><text class="terminal-2931005313-r17" x="414.8" y="508" textLength="134.2" clip-path="url(#terminal-2931005313-line-20)">Delete&#160;node</text><text class="terminal-2931005313-r16" x="1061.4" y="508" textLength="12.2" clip-path="url(#terminal-2931005313-line-20)">│</text><text class="terminal-2931005313-r13" x="1098" y="508" textLength="12.2" clip-path="url(#terminal-2931005313-line-20)">▎</text><text class="terminal-2931005313-r4" x="1464" y="508" textLength="12.2" clip-path="url(#terminal-2931005313-line-20)">
</text><text class="terminal-2931005313-r12" x="353.8" y="532.4" textLength="12.2" clip-path="url(#terminal-2931005313-line-21)">▊</text><text class="terminal-2931005313-r16" x="390.4" y="532.4" textLength="12.2" clip-path="url(#terminal-2931005313-line-21)">│</text><text class="terminal-2931005313-r18" x="427" y="532.4" textLength="292.8" clip-path="url(#terminal-2931005313-line-21)">No&#160;other&#160;nodes&#160;affected.</text><text class="terminal-2931005313-r16" x="1061.4" y="532.4" textLength="12.2" clip-path="url(#terminal-2931005313-line-21)">│</text><text class="terminal-2931005313-r13" x="1098" y="532.4" textLength="12.2" clip-path="url(#terminal-2931005313-line-21)">▎</text><text class="terminal-2931005313-r4" x="1464" y="532.4" textLength="12.2" clip-path="url(#terminal-2931005313-line-21)">
</text><text class="terminal-2931005313-r12" x="353.8" y="556.8" textLength="12.2" clip-path="url(#terminal-2931005313-line-22)">▊</text><text class="terminal-2931005313-r16" x="390.4" y="556.8" textLength="12.2" clip-path="url(#terminal-2931005313-line-22)">╰</text><text class="terminal-2931005313-r16" x="402.6" y="556.8" textLength="658.8" clip-path="url(#terminal-2931005313-line-22)">──────────────────────────────────────────────────────</text><text class="terminal-2931005313-r16" x="1061.4" y="556.8" textLength="12.2" clip-path="url(#terminal-2931005313-line-22)">╯</text><text class="terminal-2931005313-r13" x="1098" y="556.8" textLength="12.2" clip-path="url(#terminal-2931005313-line-22)">▎</text><text class="terminal-2931005313-r4" x="1464" y="556.8" textLength="12.2" clip-path="url(#terminal-2931005313-line-22)">
</text><text class="terminal-2931005313-r12" x="353.8" y="581.2" textLength="12.2" clip-path="url(#terminal-2931005313-line-23)">▊</text><text class="terminal-2931005313-r13" x="1098" y="581.2" textLength="12.2" clip-path="url(#terminal-2931005313-line-23)">▎</text><text class="terminal-2931005313-r4" x="1464" y="581.2" textLength="12.2" clip-path="url(#terminal-2931005313-line-23)">
</text><text class="terminal-2931005313-r12" x="353.8" y="605.6" textLength="12.2" clip-path="url(#terminal-2931005313-line-24)">▊</text><text class="terminal-2931005313-r19" x="390.4" y="605.6" textLength="463.6" clip-path="url(#terminal-2931005313-line-24)">↑↓&#160;select&#160;&#160;&#160;Enter&#160;confirm&#160;&#160;&#160;Esc&#160;cancel</text><text class="terminal-2931005313-r13" x="1098" y="605.6" textLength="12.2" clip-path="url(#terminal-2931005313-line-24)">▎</text><text class="terminal-2931005313-r4" x="1464" y="605.6" textLength="12.2" clip-path="url(#terminal-2931005313-line-24)">
</text><text class="terminal-2931005313-r12" x="353.8" y="630" textLength="12.2" clip-path="url(#terminal-2931005313-line-25)">▊</text><text class="terminal-2931005313-r13" x="1098" y="630" textLength="12.2" clip-path="url(#terminal-2931005313-line-25)">▎</text><text class="terminal-2931005313-r4" x="1464" y="630" textLength="12.2" clip-path="url(#terminal-2931005313-line-25)">
</text><text class="terminal-2931005313-r12" x="353.8" y="654.4" textLength="12.2" clip-path="url(#terminal-2931005313-line-26)">▊</text><text class="terminal-2931005313-r13" x="366" y="654.4" textLength="732" clip-path="url(#terminal-2931005313-line-26)">▁▁▁▁▁▁▁▁▁▁▁▁▁▁▁▁▁▁▁▁▁▁▁▁▁▁▁▁▁▁▁▁▁▁▁▁▁▁▁▁▁▁▁▁▁▁▁▁▁▁▁▁▁▁▁▁▁▁▁▁</text><text class="terminal-2931005313-r13" x="1098" y="654.4" textLength="12.2" clip-path="url(#terminal-2931005313-line-26)">▎</text><text class="terminal-2931005313-r4" x="1464" y="654.4" textLength="12.2" clip-path="url(#terminal-2931005313-line-26)">
</text><text class="terminal-2931005313-r4" x="1464" y="678.8" textLength="12.2" clip-path="url(#terminal-2931005313-line-27)">
</text><text class="terminal-2931005313-r4" x="1464" y="703.2" textLength="12.2" clip-path="url(#terminal-2931005313-line-28)">
</text><text class="terminal-2931005313-r4" x="1464" y="727.6" textLength="12.2" clip-path="url(#terminal-2931005313-line-29)">
</text><text class="terminal-2931005313-r4" x="1464" y="752" textLength="12.2" clip-path="url(#terminal-2931005313-line-30)">
</text><text class="terminal-2931005313-r4" x="1464" y="776.4" textLength="12.2" clip-path="url(#terminal-2931005313-line-31)">
</text><text class="terminal-2931005313-r4" x="1464" y="800.8" textLength="12.2" clip-path="url(#terminal-2931005313-line-32)">
</text><text class="terminal-2931005313-r4" x="1464" y="825.2" textLength="12.2" clip-path="url(#terminal-2931005313-line-33)">
</text><text class="terminal-2931005313-r4" x="1464" y="849.6" textLength="12.2" clip-path="url(#terminal-2931005313-line-34)">
</text><text class="terminal-2931005313-r4" x="1464" y="874" textLength="12.2" clip-path="url(#terminal-2931005313-line-35)">
</text><text class="terminal-2931005313-r4" x="1464" y="898.4" textLength="12.2" clip-path="url(#terminal-2931005313-line-36)">
</text><text class="terminal-2931005313-r4" x="1464" y="922.8" textLength="12.2" clip-path="url(#terminal-2931005313-line-37)">
</text><text class="terminal-2931005313-r4" x="1464" y="947.2" textLength="12.2" clip-path="url(#terminal-2931005313-line-38)">
</text><text class="terminal-2931005313-r20" x="0" y="971.6" textLength="36.6" clip-path="url(#terminal-2931005313-line-39)">&#160;q&#160;</text><text class="terminal-2931005313-r3" x="36.6" y="971.6" textLength="61" clip-path="url(#terminal-2931005313-line-39)">Quit&#160;</text><text class="terminal-2931005313-r20" x="97.6" y="971.6" textLength="36.6" clip-path="url(#terminal-2931005313-line-39)">&#160;h&#160;</text><text class="terminal-2931005313-r3" x="134.2" y="971.6" textLength="61" clip-path="url(#terminal-2931005313-line-39)">Home&#160;</text><text class="terminal-2931005313-r20" x="195.2" y="971.6" textLength="61" clip-path="url(#terminal-2931005313-line-39)">&#160;esc&#160;</text><text class="terminal-2931005313-r3" x="256.2" y="971.6" textLength="61" clip-path="url(#terminal-2931005313-line-39)">Back&#160;</text><text class="terminal-2931005313-r20" x="317.2" y="971.6" textLength="36.6" clip-path="url(#terminal-2931005313-line-39)">&#160;e&#160;</text><text class="terminal-2931005313-r3" x="353.8" y="971.6" textLength="61" clip-path="url(#terminal-2931005313-line-39)">Edit&#160;</text><text class="terminal-2931005313-r20" x="414.8" y="971.6" textLength="36.6" clip-path="url(#terminal-2931005313-line-39)">&#160;a&#160;</text><text class="terminal-2931005313-r3" x="451.4" y="971.6" textLength="85.4" clip-path="url(#terminal-2931005313-line-39)">Append&#160;</text><text class="terminal-2931005313-r20" x="536.8" y="971.6" textLength="36.6" clip-path="url(#terminal-2931005313-line-39)">&#160;z&#160;</text><text class="terminal-2931005313-r3" x="573.4" y="971.6" textLength="146.4" clip-path="url(#terminal-2931005313-line-39)">Link&#160;parent&#160;</text><text class="terminal-2931005313-r20" x="719.8" y="971.6" textLength="36.6" clip-path="url(#terminal-2931005313-line-39)">&#160;d&#160;</text><text class="terminal-2931005313-r3" x="756.4" y="971.6" textLength="85.4" clip-path="url(#terminal-2931005313-line-39)">Delete&#160;</text><text class="terminal-2931005313-r20" x="841.8" y="971.6" textLength="36.6" clip-path="url(#terminal-2931005313-line-39)">&#160;y&#160;</text><text class="terminal-2931005313-r3" x="878.4" y="971.6" textLength="122" clip-path="url(#terminal-2931005313-line-39)">Copy&#160;view&#160;</text><text class="terminal-2931005313-r20" x="1000.4" y="971.6" textLength="36.6" clip-path="url(#terminal-2931005313-line-39)">&#160;s&#160;</text><text class="terminal-2931005313-r3" x="1037" y="971.6" textLength="85.4" clip-path="url(#terminal-2931005313-line-39)">Search&#160;</text><text class="terminal-2931005313-r20" x="1122.4" y="971.6" textLength="48.8" clip-path="url(#terminal-2931005313-line-39)">&#160;f2&#160;</text><text class="terminal-2931005313-r3" x="1171.2" y="971.6" textLength="36.6" clip-path="url(#terminal-2931005313-line-39)">AI&#160;</text>
    </g>
    </g>
</svg>
